<mxfile host="Electron" agent="Mozilla/5.0 (Windows NT 10.0; Win64; x64) AppleWebKit/537.36 (KHTML, like Gecko) draw.io/24.7.8 Chrome/128.0.6613.36 Electron/32.0.1 Safari/537.36" version="24.7.8">
  <diagram name="Page-1" id="lZSOLDv0vQ2yT-WHlKQu">
    <mxGraphModel dx="794" dy="519" grid="1" gridSize="10" guides="1" tooltips="1" connect="1" arrows="1" fold="1" page="1" pageScale="1" pageWidth="850" pageHeight="1100" math="0" shadow="0">
      <root>
        <mxCell id="0" />
        <mxCell id="1" parent="0" />
        <mxCell id="FGXbGoNrxI5vV7qPCMs--3" value="" style="edgeStyle=orthogonalEdgeStyle;rounded=0;orthogonalLoop=1;jettySize=auto;html=1;" parent="1" source="FGXbGoNrxI5vV7qPCMs--1" edge="1">
          <mxGeometry relative="1" as="geometry">
            <mxPoint x="273.01724137931035" y="2350" as="targetPoint" />
          </mxGeometry>
        </mxCell>
        <mxCell id="FGXbGoNrxI5vV7qPCMs--1" value="Inicio" style="ellipse;whiteSpace=wrap;html=1;" parent="1" vertex="1">
          <mxGeometry x="223" y="2260" width="100" height="60" as="geometry" />
        </mxCell>
        <mxCell id="FGXbGoNrxI5vV7qPCMs--47" value="" style="edgeStyle=orthogonalEdgeStyle;rounded=0;orthogonalLoop=1;jettySize=auto;html=1;" parent="1" target="FGXbGoNrxI5vV7qPCMs--42" edge="1">
          <mxGeometry relative="1" as="geometry">
            <mxPoint x="273" y="2540" as="sourcePoint" />
          </mxGeometry>
        </mxCell>
        <mxCell id="FGXbGoNrxI5vV7qPCMs--34" value="cantTriangulos++" style="rounded=0;whiteSpace=wrap;html=1;" parent="1" vertex="1">
          <mxGeometry x="213" y="2580" width="120" height="40" as="geometry" />
        </mxCell>
        <mxCell id="FGXbGoNrxI5vV7qPCMs--41" value="" style="edgeStyle=orthogonalEdgeStyle;rounded=0;orthogonalLoop=1;jettySize=auto;html=1;" parent="1" edge="1">
          <mxGeometry relative="1" as="geometry">
            <mxPoint x="273" y="2620" as="sourcePoint" />
            <mxPoint x="272.9999999999999" y="2650" as="targetPoint" />
          </mxGeometry>
        </mxCell>
        <mxCell id="FGXbGoNrxI5vV7qPCMs--42" value="ladoA = pedirLado(1)" style="rounded=0;whiteSpace=wrap;html=1;" parent="1" vertex="1">
          <mxGeometry x="213" y="2650" width="120" height="40" as="geometry" />
        </mxCell>
        <mxCell id="FGXbGoNrxI5vV7qPCMs--43" value="" style="edgeStyle=orthogonalEdgeStyle;rounded=0;orthogonalLoop=1;jettySize=auto;html=1;" parent="1" edge="1">
          <mxGeometry relative="1" as="geometry">
            <mxPoint x="273" y="2690" as="sourcePoint" />
            <mxPoint x="272.9999999999999" y="2720" as="targetPoint" />
          </mxGeometry>
        </mxCell>
        <mxCell id="FGXbGoNrxI5vV7qPCMs--44" value="ladoB = pedirLado(2)" style="rounded=0;whiteSpace=wrap;html=1;" parent="1" vertex="1">
          <mxGeometry x="213" y="2720" width="120" height="40" as="geometry" />
        </mxCell>
        <mxCell id="FGXbGoNrxI5vV7qPCMs--45" value="" style="edgeStyle=orthogonalEdgeStyle;rounded=0;orthogonalLoop=1;jettySize=auto;html=1;" parent="1" edge="1">
          <mxGeometry relative="1" as="geometry">
            <mxPoint x="273" y="2760" as="sourcePoint" />
            <mxPoint x="272.9999999999999" y="2790" as="targetPoint" />
          </mxGeometry>
        </mxCell>
        <mxCell id="FGXbGoNrxI5vV7qPCMs--46" value="anguloC = pedirAnguloC()" style="rounded=0;whiteSpace=wrap;html=1;" parent="1" vertex="1">
          <mxGeometry x="198" y="2790" width="150" height="40" as="geometry" />
        </mxCell>
        <mxCell id="FGXbGoNrxI5vV7qPCMs--48" value="" style="edgeStyle=orthogonalEdgeStyle;rounded=0;orthogonalLoop=1;jettySize=auto;html=1;" parent="1" edge="1">
          <mxGeometry relative="1" as="geometry">
            <mxPoint x="273" y="2830" as="sourcePoint" />
            <mxPoint x="272.9999999999999" y="2860" as="targetPoint" />
          </mxGeometry>
        </mxCell>
        <mxCell id="FGXbGoNrxI5vV7qPCMs--51" value="" style="edgeStyle=orthogonalEdgeStyle;rounded=0;orthogonalLoop=1;jettySize=auto;html=1;" parent="1" source="FGXbGoNrxI5vV7qPCMs--49" target="FGXbGoNrxI5vV7qPCMs--50" edge="1">
          <mxGeometry relative="1" as="geometry" />
        </mxCell>
        <mxCell id="FGXbGoNrxI5vV7qPCMs--49" value="area = calcularArea(ladoA, ladoB, anguloC)" style="rounded=0;whiteSpace=wrap;html=1;" parent="1" vertex="1">
          <mxGeometry x="173" y="2860" width="200" height="40" as="geometry" />
        </mxCell>
        <mxCell id="FGXbGoNrxI5vV7qPCMs--53" value="" style="edgeStyle=orthogonalEdgeStyle;rounded=0;orthogonalLoop=1;jettySize=auto;html=1;" parent="1" source="FGXbGoNrxI5vV7qPCMs--50" target="FGXbGoNrxI5vV7qPCMs--52" edge="1">
          <mxGeometry relative="1" as="geometry" />
        </mxCell>
        <mxCell id="FGXbGoNrxI5vV7qPCMs--54" value="Si" style="edgeLabel;html=1;align=center;verticalAlign=middle;resizable=0;points=[];" parent="FGXbGoNrxI5vV7qPCMs--53" vertex="1" connectable="0">
          <mxGeometry x="-0.2126" relative="1" as="geometry">
            <mxPoint as="offset" />
          </mxGeometry>
        </mxCell>
        <mxCell id="FGXbGoNrxI5vV7qPCMs--62" value="" style="edgeStyle=orthogonalEdgeStyle;rounded=0;orthogonalLoop=1;jettySize=auto;html=1;" parent="1" source="FGXbGoNrxI5vV7qPCMs--50" target="FGXbGoNrxI5vV7qPCMs--55" edge="1">
          <mxGeometry relative="1" as="geometry" />
        </mxCell>
        <mxCell id="FGXbGoNrxI5vV7qPCMs--63" value="No" style="edgeLabel;html=1;align=center;verticalAlign=middle;resizable=0;points=[];" parent="FGXbGoNrxI5vV7qPCMs--62" vertex="1" connectable="0">
          <mxGeometry x="-0.1138" y="-1" relative="1" as="geometry">
            <mxPoint as="offset" />
          </mxGeometry>
        </mxCell>
        <mxCell id="FGXbGoNrxI5vV7qPCMs--50" value="clasificar(area) es verdadero" style="rhombus;whiteSpace=wrap;html=1;" parent="1" vertex="1">
          <mxGeometry x="213" y="2940" width="120" height="120" as="geometry" />
        </mxCell>
        <mxCell id="FGXbGoNrxI5vV7qPCMs--52" value="grandes++" style="rounded=0;whiteSpace=wrap;html=1;" parent="1" vertex="1">
          <mxGeometry x="385.5" y="2985" width="82.5" height="30" as="geometry" />
        </mxCell>
        <mxCell id="FGXbGoNrxI5vV7qPCMs--55" value="areas[&lt;span style=&quot;background-color: initial;&quot;&gt;cantTriangulos-1] = area&lt;/span&gt;" style="rounded=0;whiteSpace=wrap;html=1;" parent="1" vertex="1">
          <mxGeometry x="184.88" y="3160" width="176.25" height="30" as="geometry" />
        </mxCell>
        <mxCell id="FGXbGoNrxI5vV7qPCMs--57" value="" style="edgeStyle=orthogonalEdgeStyle;rounded=0;orthogonalLoop=1;jettySize=auto;html=1;" parent="1" target="FGXbGoNrxI5vV7qPCMs--58" edge="1">
          <mxGeometry relative="1" as="geometry">
            <mxPoint x="273.5" y="3190" as="sourcePoint" />
          </mxGeometry>
        </mxCell>
        <mxCell id="FGXbGoNrxI5vV7qPCMs--60" value="" style="edgeStyle=orthogonalEdgeStyle;rounded=0;orthogonalLoop=1;jettySize=auto;html=1;" parent="1" source="FGXbGoNrxI5vV7qPCMs--58" target="FGXbGoNrxI5vV7qPCMs--59" edge="1">
          <mxGeometry relative="1" as="geometry" />
        </mxCell>
        <mxCell id="FGXbGoNrxI5vV7qPCMs--58" value="iteraciones = pedirContinuar()" style="rounded=0;whiteSpace=wrap;html=1;" parent="1" vertex="1">
          <mxGeometry x="184.88" y="3220" width="176.25" height="30" as="geometry" />
        </mxCell>
        <mxCell id="FGXbGoNrxI5vV7qPCMs--59" value="iteraciones &amp;gt; 0" style="rhombus;whiteSpace=wrap;html=1;" parent="1" vertex="1">
          <mxGeometry x="223" y="3280" width="107.5" height="100" as="geometry" />
        </mxCell>
        <mxCell id="FGXbGoNrxI5vV7qPCMs--61" value="&lt;div&gt;&lt;br&gt;&lt;/div&gt;&lt;div&gt;&lt;div&gt;areas[1000]&lt;/div&gt;promedio = 0&lt;div&gt;&lt;span style=&quot;background-color: initial;&quot;&gt;mayoresQuePromedio&amp;nbsp;&lt;/span&gt;= 0&lt;br&gt;&lt;/div&gt;&lt;div&gt;&lt;span style=&quot;background-color: initial;&quot;&gt;mayoresQuePromedio&amp;nbsp;&lt;/span&gt;= 0&lt;br&gt;&lt;/div&gt;&lt;div&gt;cantTriangulos = 0&lt;br&gt;&lt;/div&gt;&lt;div&gt;iteraciones = 0&lt;br&gt;&lt;/div&gt;&lt;div&gt;ladoA = 0&lt;br&gt;&lt;/div&gt;&lt;div&gt;ladoB&amp;nbsp;&lt;span style=&quot;background-color: initial;&quot;&gt;= 0&lt;/span&gt;&lt;br&gt;&lt;/div&gt;&lt;div&gt;anguloC&amp;nbsp;&lt;span style=&quot;background-color: initial;&quot;&gt;= 0&lt;/span&gt;&lt;span style=&quot;background-color: initial;&quot;&gt;&lt;br&gt;&lt;/span&gt;&lt;/div&gt;&lt;div&gt;area = 0&lt;span style=&quot;background-color: initial;&quot;&gt;&lt;br&gt;&lt;/span&gt;&lt;/div&gt;&lt;div&gt;porcentaje&amp;nbsp;&lt;span style=&quot;background-color: initial;&quot;&gt;= 0&lt;/span&gt;&lt;br&gt;&lt;/div&gt;&lt;div&gt;grandes&amp;nbsp;&lt;span style=&quot;background-color: initial;&quot;&gt;= 0&lt;/span&gt;&lt;br&gt;&lt;/div&gt;&lt;div&gt;&lt;br&gt;&lt;/div&gt;&lt;/div&gt;" style="whiteSpace=wrap;html=1;aspect=fixed;" parent="1" vertex="1">
          <mxGeometry x="178" y="2350" width="190" height="190" as="geometry" />
        </mxCell>
        <mxCell id="FGXbGoNrxI5vV7qPCMs--64" value="" style="endArrow=none;html=1;rounded=0;entryX=0.583;entryY=1.08;entryDx=0;entryDy=0;entryPerimeter=0;" parent="1" edge="1">
          <mxGeometry width="50" height="50" relative="1" as="geometry">
            <mxPoint x="426.5" y="3130" as="sourcePoint" />
            <mxPoint x="426.5075" y="3015" as="targetPoint" />
          </mxGeometry>
        </mxCell>
        <mxCell id="FGXbGoNrxI5vV7qPCMs--65" value="" style="endArrow=classic;html=1;rounded=0;" parent="1" edge="1">
          <mxGeometry width="50" height="50" relative="1" as="geometry">
            <mxPoint x="425.5" y="3130" as="sourcePoint" />
            <mxPoint x="275.5" y="3130" as="targetPoint" />
          </mxGeometry>
        </mxCell>
        <mxCell id="FGXbGoNrxI5vV7qPCMs--67" value="" style="endArrow=none;html=1;rounded=0;" parent="1" edge="1">
          <mxGeometry width="50" height="50" relative="1" as="geometry">
            <mxPoint x="145.5" y="3330" as="sourcePoint" />
            <mxPoint x="219.25" y="3330" as="targetPoint" />
          </mxGeometry>
        </mxCell>
        <mxCell id="FGXbGoNrxI5vV7qPCMs--72" value="Si" style="edgeLabel;html=1;align=center;verticalAlign=middle;resizable=0;points=[];" parent="FGXbGoNrxI5vV7qPCMs--67" vertex="1" connectable="0">
          <mxGeometry x="-0.1269" y="2" relative="1" as="geometry">
            <mxPoint as="offset" />
          </mxGeometry>
        </mxCell>
        <mxCell id="FGXbGoNrxI5vV7qPCMs--68" value="" style="endArrow=none;html=1;rounded=0;" parent="1" edge="1">
          <mxGeometry width="50" height="50" relative="1" as="geometry">
            <mxPoint x="145.5" y="3330" as="sourcePoint" />
            <mxPoint x="145.5" y="2560" as="targetPoint" />
          </mxGeometry>
        </mxCell>
        <mxCell id="FGXbGoNrxI5vV7qPCMs--69" value="" style="endArrow=classic;html=1;rounded=0;" parent="1" edge="1">
          <mxGeometry width="50" height="50" relative="1" as="geometry">
            <mxPoint x="145.5" y="2560" as="sourcePoint" />
            <mxPoint x="275.5" y="2560" as="targetPoint" />
          </mxGeometry>
        </mxCell>
        <mxCell id="FGXbGoNrxI5vV7qPCMs--75" value="" style="endArrow=classic;html=1;rounded=0;exitX=0.5;exitY=1;exitDx=0;exitDy=0;" parent="1" source="FGXbGoNrxI5vV7qPCMs--59" edge="1">
          <mxGeometry width="50" height="50" relative="1" as="geometry">
            <mxPoint x="325.5" y="3440" as="sourcePoint" />
            <mxPoint x="275.5" y="3440" as="targetPoint" />
          </mxGeometry>
        </mxCell>
        <mxCell id="FGXbGoNrxI5vV7qPCMs--76" value="&lt;span style=&quot;background-color: initial;&quot;&gt;cantTriangulos &amp;gt; 0&lt;/span&gt;" style="rhombus;whiteSpace=wrap;html=1;" parent="1" vertex="1">
          <mxGeometry x="216.13" y="3440" width="121.25" height="110" as="geometry" />
        </mxCell>
        <mxCell id="FGXbGoNrxI5vV7qPCMs--78" value="" style="endArrow=classic;html=1;rounded=0;exitX=1;exitY=0.5;exitDx=0;exitDy=0;" parent="1" source="FGXbGoNrxI5vV7qPCMs--76" target="cu7rC33EsS3bLq7DKkPL-8" edge="1">
          <mxGeometry width="50" height="50" relative="1" as="geometry">
            <mxPoint x="365.5" y="3560" as="sourcePoint" />
            <mxPoint x="405.5" y="3495" as="targetPoint" />
          </mxGeometry>
        </mxCell>
        <mxCell id="cu7rC33EsS3bLq7DKkPL-1" value="" style="endArrow=classic;html=1;rounded=0;exitX=0.5;exitY=1;exitDx=0;exitDy=0;" parent="1" source="FGXbGoNrxI5vV7qPCMs--76" edge="1">
          <mxGeometry width="50" height="50" relative="1" as="geometry">
            <mxPoint x="345.5" y="3540" as="sourcePoint" />
            <mxPoint x="276.5" y="3640" as="targetPoint" />
          </mxGeometry>
        </mxCell>
        <mxCell id="cu7rC33EsS3bLq7DKkPL-2" value="No" style="edgeLabel;html=1;align=center;verticalAlign=middle;resizable=0;points=[];" parent="cu7rC33EsS3bLq7DKkPL-1" vertex="1" connectable="0">
          <mxGeometry x="-0.105" relative="1" as="geometry">
            <mxPoint as="offset" />
          </mxGeometry>
        </mxCell>
        <mxCell id="cu7rC33EsS3bLq7DKkPL-3" value="El programa ha terminado" style="shape=document;whiteSpace=wrap;html=1;boundedLbl=1;" parent="1" vertex="1">
          <mxGeometry x="231.12" y="3640" width="101.88" height="50" as="geometry" />
        </mxCell>
        <mxCell id="cu7rC33EsS3bLq7DKkPL-4" value="" style="endArrow=classic;html=1;rounded=0;exitX=0.489;exitY=0.918;exitDx=0;exitDy=0;exitPerimeter=0;" parent="1" source="cu7rC33EsS3bLq7DKkPL-3" edge="1">
          <mxGeometry width="50" height="50" relative="1" as="geometry">
            <mxPoint x="345.5" y="3680" as="sourcePoint" />
            <mxPoint x="280.5" y="3750" as="targetPoint" />
          </mxGeometry>
        </mxCell>
        <mxCell id="cu7rC33EsS3bLq7DKkPL-7" value="" style="edgeStyle=orthogonalEdgeStyle;rounded=0;orthogonalLoop=1;jettySize=auto;html=1;" parent="1" source="cu7rC33EsS3bLq7DKkPL-5" target="cu7rC33EsS3bLq7DKkPL-6" edge="1">
          <mxGeometry relative="1" as="geometry" />
        </mxCell>
        <mxCell id="cu7rC33EsS3bLq7DKkPL-5" value="retornar 0" style="rounded=0;whiteSpace=wrap;html=1;" parent="1" vertex="1">
          <mxGeometry x="236.12" y="3750" width="91.88" height="20" as="geometry" />
        </mxCell>
        <mxCell id="cu7rC33EsS3bLq7DKkPL-6" value="fin" style="ellipse;whiteSpace=wrap;html=1;" parent="1" vertex="1">
          <mxGeometry x="240.5" y="3800" width="82.5" height="60" as="geometry" />
        </mxCell>
        <mxCell id="cu7rC33EsS3bLq7DKkPL-10" value="" style="edgeStyle=orthogonalEdgeStyle;rounded=0;orthogonalLoop=1;jettySize=auto;html=1;" parent="1" source="cu7rC33EsS3bLq7DKkPL-8" target="cu7rC33EsS3bLq7DKkPL-9" edge="1">
          <mxGeometry relative="1" as="geometry" />
        </mxCell>
        <mxCell id="cu7rC33EsS3bLq7DKkPL-8" value="&lt;span style=&quot;background-color: initial;&quot;&gt;promedio&lt;/span&gt;&lt;span style=&quot;background-color: initial;&quot;&gt; &lt;/span&gt;&lt;span style=&quot;background-color: initial;&quot;&gt;=&lt;/span&gt;&lt;span style=&quot;background-color: initial;&quot;&gt; &lt;/span&gt;&lt;span style=&quot;background-color: initial;&quot;&gt;obtenerPromedio&lt;/span&gt;&lt;span style=&quot;background-color: initial;&quot;&gt;(&lt;/span&gt;&lt;span style=&quot;background-color: initial;&quot;&gt;areas&lt;/span&gt;&lt;span style=&quot;background-color: initial;&quot;&gt;,&lt;/span&gt;&lt;span style=&quot;background-color: initial;&quot;&gt; &lt;/span&gt;&lt;span style=&quot;background-color: initial;&quot;&gt;cantTriangulos&lt;/span&gt;&lt;span style=&quot;background-color: initial;&quot;&gt;)&lt;/span&gt;" style="rounded=0;whiteSpace=wrap;html=1;" parent="1" vertex="1">
          <mxGeometry x="525.5" y="3475" width="210" height="40" as="geometry" />
        </mxCell>
        <mxCell id="cu7rC33EsS3bLq7DKkPL-12" value="" style="edgeStyle=orthogonalEdgeStyle;rounded=0;orthogonalLoop=1;jettySize=auto;html=1;" parent="1" source="cu7rC33EsS3bLq7DKkPL-9" target="cu7rC33EsS3bLq7DKkPL-11" edge="1">
          <mxGeometry relative="1" as="geometry" />
        </mxCell>
        <mxCell id="cu7rC33EsS3bLq7DKkPL-9" value="&lt;span style=&quot;background-color: initial;&quot;&gt;mayoresQuePromedio&lt;/span&gt;&lt;span style=&quot;background-color: initial;&quot;&gt; &lt;/span&gt;&lt;span style=&quot;background-color: initial;&quot;&gt;=&lt;/span&gt;&lt;span style=&quot;background-color: initial;&quot;&gt; &lt;/span&gt;&lt;span style=&quot;background-color: initial;&quot;&gt;contarMayoresQuePromedio&lt;/span&gt;&lt;span style=&quot;background-color: initial;&quot;&gt;(&lt;/span&gt;&lt;span style=&quot;background-color: initial;&quot;&gt;areas&lt;/span&gt;&lt;span style=&quot;background-color: initial;&quot;&gt;,&lt;/span&gt;&lt;span style=&quot;background-color: initial;&quot;&gt; &lt;/span&gt;&lt;span style=&quot;background-color: initial;&quot;&gt;cantTriangulos&lt;/span&gt;&lt;span style=&quot;background-color: initial;&quot;&gt;,&lt;/span&gt;&lt;span style=&quot;background-color: initial;&quot;&gt; &lt;/span&gt;&lt;span style=&quot;background-color: initial;&quot;&gt;promedio&lt;/span&gt;&lt;span style=&quot;background-color: initial;&quot;&gt;)&lt;/span&gt;" style="rounded=0;whiteSpace=wrap;html=1;" parent="1" vertex="1">
          <mxGeometry x="488" y="3550" width="285" height="60" as="geometry" />
        </mxCell>
        <mxCell id="cu7rC33EsS3bLq7DKkPL-14" value="" style="edgeStyle=orthogonalEdgeStyle;rounded=0;orthogonalLoop=1;jettySize=auto;html=1;" parent="1" source="cu7rC33EsS3bLq7DKkPL-11" target="cu7rC33EsS3bLq7DKkPL-13" edge="1">
          <mxGeometry relative="1" as="geometry" />
        </mxCell>
        <mxCell id="cu7rC33EsS3bLq7DKkPL-11" value="&lt;span style=&quot;background-color: initial;&quot;&gt;porcentaje&lt;/span&gt;&lt;span style=&quot;background-color: initial;&quot;&gt; &lt;/span&gt;&lt;span style=&quot;background-color: initial;&quot;&gt;=&lt;/span&gt;&lt;span style=&quot;background-color: initial;&quot;&gt; &lt;/span&gt;&lt;span style=&quot;background-color: initial;&quot;&gt;calcularPorcentaje&lt;/span&gt;&lt;span style=&quot;background-color: initial;&quot;&gt;(&lt;/span&gt;&lt;span style=&quot;background-color: initial;&quot;&gt;grandes&lt;/span&gt;&lt;span style=&quot;background-color: initial;&quot;&gt;,&lt;/span&gt;&lt;span style=&quot;background-color: initial;&quot;&gt; &lt;/span&gt;&lt;span style=&quot;background-color: initial;&quot;&gt;cantTriangulos&lt;/span&gt;&lt;span style=&quot;background-color: initial;&quot;&gt;)&lt;/span&gt;" style="rounded=0;whiteSpace=wrap;html=1;" parent="1" vertex="1">
          <mxGeometry x="495.5" y="3650" width="270" height="60" as="geometry" />
        </mxCell>
        <mxCell id="cu7rC33EsS3bLq7DKkPL-13" value="&lt;span style=&quot;background-color: initial;&quot;&gt;resumen&lt;/span&gt;&lt;span style=&quot;background-color: initial;&quot;&gt;(&lt;/span&gt;&lt;span style=&quot;background-color: initial;&quot;&gt;porcentaje&lt;/span&gt;&lt;span style=&quot;background-color: initial;&quot;&gt;,&lt;/span&gt;&lt;span style=&quot;background-color: initial;&quot;&gt; &lt;/span&gt;&lt;span style=&quot;background-color: initial;&quot;&gt;grandes&lt;/span&gt;&lt;span style=&quot;background-color: initial;&quot;&gt;,&lt;/span&gt;&lt;span style=&quot;background-color: initial;&quot;&gt; &lt;/span&gt;&lt;span style=&quot;background-color: initial;&quot;&gt;promedio&lt;/span&gt;&lt;span style=&quot;background-color: initial;&quot;&gt;,&lt;/span&gt;&lt;span style=&quot;background-color: initial;&quot;&gt; &lt;/span&gt;&lt;span style=&quot;background-color: initial;&quot;&gt;mayoresQuePromedio&lt;/span&gt;&lt;span style=&quot;background-color: initial;&quot;&gt;)&lt;/span&gt;" style="rounded=0;whiteSpace=wrap;html=1;" parent="1" vertex="1">
          <mxGeometry x="525.5" y="3740" width="210" height="60" as="geometry" />
        </mxCell>
        <mxCell id="cu7rC33EsS3bLq7DKkPL-15" value="" style="endArrow=none;html=1;rounded=0;entryX=0;entryY=0.75;entryDx=0;entryDy=0;" parent="1" target="cu7rC33EsS3bLq7DKkPL-13" edge="1">
          <mxGeometry width="50" height="50" relative="1" as="geometry">
            <mxPoint x="445.5" y="3785" as="sourcePoint" />
            <mxPoint x="525.5" y="3630" as="targetPoint" />
          </mxGeometry>
        </mxCell>
        <mxCell id="cu7rC33EsS3bLq7DKkPL-16" value="" style="endArrow=none;html=1;rounded=0;" parent="1" edge="1">
          <mxGeometry width="50" height="50" relative="1" as="geometry">
            <mxPoint x="445.5" y="3780" as="sourcePoint" />
            <mxPoint x="445.5" y="3620" as="targetPoint" />
          </mxGeometry>
        </mxCell>
        <mxCell id="cu7rC33EsS3bLq7DKkPL-17" value="" style="endArrow=classic;html=1;rounded=0;" parent="1" edge="1">
          <mxGeometry width="50" height="50" relative="1" as="geometry">
            <mxPoint x="445.5" y="3620" as="sourcePoint" />
            <mxPoint x="275.5" y="3620" as="targetPoint" />
          </mxGeometry>
        </mxCell>
        <mxCell id="cu7rC33EsS3bLq7DKkPL-20" value="" style="edgeStyle=orthogonalEdgeStyle;rounded=0;orthogonalLoop=1;jettySize=auto;html=1;" parent="1" source="cu7rC33EsS3bLq7DKkPL-18" edge="1">
          <mxGeometry relative="1" as="geometry">
            <mxPoint x="686.6000000000001" y="140" as="targetPoint" />
          </mxGeometry>
        </mxCell>
        <mxCell id="cu7rC33EsS3bLq7DKkPL-18" value="inicio" style="ellipse;whiteSpace=wrap;html=1;" parent="1" vertex="1">
          <mxGeometry x="636.55" y="50" width="100" height="60" as="geometry" />
        </mxCell>
        <mxCell id="cu7rC33EsS3bLq7DKkPL-23" value="" style="edgeStyle=orthogonalEdgeStyle;rounded=0;orthogonalLoop=1;jettySize=auto;html=1;exitX=0.5;exitY=1;exitDx=0;exitDy=0;" parent="1" source="cu7rC33EsS3bLq7DKkPL-312" edge="1">
          <mxGeometry relative="1" as="geometry">
            <mxPoint x="686.6000000000001" y="170" as="sourcePoint" />
            <mxPoint x="686.55" y="200" as="targetPoint" />
          </mxGeometry>
        </mxCell>
        <mxCell id="cu7rC33EsS3bLq7DKkPL-21" value="pedirContinuar()" style="text;html=1;align=center;verticalAlign=middle;resizable=0;points=[];autosize=1;strokeColor=none;fillColor=none;" parent="1" vertex="1">
          <mxGeometry x="626.55" y="20" width="110" height="30" as="geometry" />
        </mxCell>
        <mxCell id="cu7rC33EsS3bLq7DKkPL-34" value="" style="edgeStyle=orthogonalEdgeStyle;rounded=0;orthogonalLoop=1;jettySize=auto;html=1;" parent="1" source="cu7rC33EsS3bLq7DKkPL-24" target="cu7rC33EsS3bLq7DKkPL-33" edge="1">
          <mxGeometry relative="1" as="geometry" />
        </mxCell>
        <mxCell id="cu7rC33EsS3bLq7DKkPL-24" value="valor válido" style="rhombus;whiteSpace=wrap;html=1;" parent="1" vertex="1">
          <mxGeometry x="646.55" y="200" width="80" height="80" as="geometry" />
        </mxCell>
        <mxCell id="cu7rC33EsS3bLq7DKkPL-25" value="" style="endArrow=none;html=1;rounded=0;" parent="1" edge="1">
          <mxGeometry width="50" height="50" relative="1" as="geometry">
            <mxPoint x="726.55" y="240" as="sourcePoint" />
            <mxPoint x="776.55" y="240" as="targetPoint" />
          </mxGeometry>
        </mxCell>
        <mxCell id="cu7rC33EsS3bLq7DKkPL-29" value="No" style="edgeLabel;html=1;align=center;verticalAlign=middle;resizable=0;points=[];" parent="cu7rC33EsS3bLq7DKkPL-25" vertex="1" connectable="0">
          <mxGeometry x="-0.2279" y="-1" relative="1" as="geometry">
            <mxPoint as="offset" />
          </mxGeometry>
        </mxCell>
        <mxCell id="cu7rC33EsS3bLq7DKkPL-28" value="" style="endArrow=classic;html=1;rounded=0;" parent="1" edge="1">
          <mxGeometry width="50" height="50" relative="1" as="geometry">
            <mxPoint x="776.55" y="180" as="sourcePoint" />
            <mxPoint x="686.55" y="180" as="targetPoint" />
          </mxGeometry>
        </mxCell>
        <mxCell id="cu7rC33EsS3bLq7DKkPL-30" value="error" style="shape=document;whiteSpace=wrap;html=1;boundedLbl=1;" parent="1" vertex="1">
          <mxGeometry x="746.55" y="200" width="60" height="30" as="geometry" />
        </mxCell>
        <mxCell id="cu7rC33EsS3bLq7DKkPL-31" value="" style="endArrow=none;html=1;rounded=0;entryX=0.502;entryY=0.869;entryDx=0;entryDy=0;entryPerimeter=0;" parent="1" target="cu7rC33EsS3bLq7DKkPL-30" edge="1">
          <mxGeometry width="50" height="50" relative="1" as="geometry">
            <mxPoint x="776.55" y="240" as="sourcePoint" />
            <mxPoint x="776.55" y="230" as="targetPoint" />
          </mxGeometry>
        </mxCell>
        <mxCell id="cu7rC33EsS3bLq7DKkPL-32" value="" style="endArrow=none;html=1;rounded=0;exitX=0.5;exitY=0;exitDx=0;exitDy=0;" parent="1" source="cu7rC33EsS3bLq7DKkPL-30" edge="1">
          <mxGeometry width="50" height="50" relative="1" as="geometry">
            <mxPoint x="706.55" y="210" as="sourcePoint" />
            <mxPoint x="776.55" y="180" as="targetPoint" />
          </mxGeometry>
        </mxCell>
        <mxCell id="cu7rC33EsS3bLq7DKkPL-36" value="" style="edgeStyle=orthogonalEdgeStyle;rounded=0;orthogonalLoop=1;jettySize=auto;html=1;" parent="1" source="cu7rC33EsS3bLq7DKkPL-33" target="cu7rC33EsS3bLq7DKkPL-35" edge="1">
          <mxGeometry relative="1" as="geometry" />
        </mxCell>
        <mxCell id="cu7rC33EsS3bLq7DKkPL-33" value="retornar continuar" style="rounded=0;whiteSpace=wrap;html=1;" parent="1" vertex="1">
          <mxGeometry x="646.55" y="300" width="80" height="30" as="geometry" />
        </mxCell>
        <mxCell id="cu7rC33EsS3bLq7DKkPL-35" value="fin" style="ellipse;whiteSpace=wrap;html=1;" parent="1" vertex="1">
          <mxGeometry x="649.05" y="350" width="75" height="50" as="geometry" />
        </mxCell>
        <mxCell id="cu7rC33EsS3bLq7DKkPL-37" value="" style="edgeStyle=orthogonalEdgeStyle;rounded=0;orthogonalLoop=1;jettySize=auto;html=1;" parent="1" source="cu7rC33EsS3bLq7DKkPL-38" target="cu7rC33EsS3bLq7DKkPL-40" edge="1">
          <mxGeometry relative="1" as="geometry" />
        </mxCell>
        <mxCell id="cu7rC33EsS3bLq7DKkPL-38" value="inicio" style="ellipse;whiteSpace=wrap;html=1;" parent="1" vertex="1">
          <mxGeometry x="206.74" y="45" width="100" height="60" as="geometry" />
        </mxCell>
        <mxCell id="cu7rC33EsS3bLq7DKkPL-39" value="" style="edgeStyle=orthogonalEdgeStyle;rounded=0;orthogonalLoop=1;jettySize=auto;html=1;" parent="1" source="cu7rC33EsS3bLq7DKkPL-40" edge="1">
          <mxGeometry relative="1" as="geometry">
            <mxPoint x="256.74" y="195" as="targetPoint" />
          </mxGeometry>
        </mxCell>
        <mxCell id="cu7rC33EsS3bLq7DKkPL-40" value="longitud = 0" style="rounded=0;whiteSpace=wrap;html=1;" parent="1" vertex="1">
          <mxGeometry x="209.24" y="135" width="95" height="30" as="geometry" />
        </mxCell>
        <mxCell id="cu7rC33EsS3bLq7DKkPL-41" value="pedirAmplitud(int lado)" style="text;html=1;align=center;verticalAlign=middle;resizable=0;points=[];autosize=1;strokeColor=none;fillColor=none;" parent="1" vertex="1">
          <mxGeometry x="181.74" y="15" width="140" height="30" as="geometry" />
        </mxCell>
        <mxCell id="cu7rC33EsS3bLq7DKkPL-43" value="longitud es válido" style="rhombus;whiteSpace=wrap;html=1;" parent="1" vertex="1">
          <mxGeometry x="316.24" y="335" width="80" height="80" as="geometry" />
        </mxCell>
        <mxCell id="cu7rC33EsS3bLq7DKkPL-44" value="" style="endArrow=none;html=1;rounded=0;" parent="1" edge="1">
          <mxGeometry width="50" height="50" relative="1" as="geometry">
            <mxPoint x="396.2400000000001" y="375" as="sourcePoint" />
            <mxPoint x="446.2400000000001" y="375" as="targetPoint" />
          </mxGeometry>
        </mxCell>
        <mxCell id="cu7rC33EsS3bLq7DKkPL-45" value="No" style="edgeLabel;html=1;align=center;verticalAlign=middle;resizable=0;points=[];" parent="cu7rC33EsS3bLq7DKkPL-44" vertex="1" connectable="0">
          <mxGeometry x="-0.2279" y="-1" relative="1" as="geometry">
            <mxPoint as="offset" />
          </mxGeometry>
        </mxCell>
        <mxCell id="cu7rC33EsS3bLq7DKkPL-47" value="error" style="shape=document;whiteSpace=wrap;html=1;boundedLbl=1;" parent="1" vertex="1">
          <mxGeometry x="416.2400000000001" y="335" width="60" height="30" as="geometry" />
        </mxCell>
        <mxCell id="cu7rC33EsS3bLq7DKkPL-48" value="" style="endArrow=none;html=1;rounded=0;entryX=0.502;entryY=0.869;entryDx=0;entryDy=0;entryPerimeter=0;" parent="1" target="cu7rC33EsS3bLq7DKkPL-47" edge="1">
          <mxGeometry width="50" height="50" relative="1" as="geometry">
            <mxPoint x="446.2400000000001" y="375" as="sourcePoint" />
            <mxPoint x="446.2400000000001" y="365" as="targetPoint" />
          </mxGeometry>
        </mxCell>
        <mxCell id="cu7rC33EsS3bLq7DKkPL-52" value="fin" style="ellipse;whiteSpace=wrap;html=1;" parent="1" vertex="1">
          <mxGeometry x="226.74" y="500" width="75" height="50" as="geometry" />
        </mxCell>
        <mxCell id="cu7rC33EsS3bLq7DKkPL-53" value="&lt;font style=&quot;font-size: 9px;&quot;&gt;lado es igual a 1 o 2&lt;/font&gt;" style="rhombus;whiteSpace=wrap;html=1;align=center;" parent="1" vertex="1">
          <mxGeometry x="206.74" y="195" width="100" height="80" as="geometry" />
        </mxCell>
        <mxCell id="cu7rC33EsS3bLq7DKkPL-62" value="" style="edgeStyle=orthogonalEdgeStyle;rounded=0;orthogonalLoop=1;jettySize=auto;html=1;" parent="1" source="cu7rC33EsS3bLq7DKkPL-60" target="cu7rC33EsS3bLq7DKkPL-43" edge="1">
          <mxGeometry relative="1" as="geometry" />
        </mxCell>
        <mxCell id="cu7rC33EsS3bLq7DKkPL-60" value="longitud" style="shape=parallelogram;perimeter=parallelogramPerimeter;whiteSpace=wrap;html=1;fixedSize=1;size=10;" parent="1" vertex="1">
          <mxGeometry x="311.24" y="265" width="90" height="40" as="geometry" />
        </mxCell>
        <mxCell id="cu7rC33EsS3bLq7DKkPL-61" value="" style="endArrow=classic;html=1;rounded=0;entryX=0.5;entryY=0;entryDx=0;entryDy=0;" parent="1" target="cu7rC33EsS3bLq7DKkPL-60" edge="1">
          <mxGeometry width="50" height="50" relative="1" as="geometry">
            <mxPoint x="356.2400000000001" y="235" as="sourcePoint" />
            <mxPoint x="326.24" y="185" as="targetPoint" />
          </mxGeometry>
        </mxCell>
        <mxCell id="cu7rC33EsS3bLq7DKkPL-63" value="" style="endArrow=none;html=1;rounded=0;exitX=0.5;exitY=0;exitDx=0;exitDy=0;" parent="1" source="cu7rC33EsS3bLq7DKkPL-47" edge="1">
          <mxGeometry width="50" height="50" relative="1" as="geometry">
            <mxPoint x="236.24" y="345" as="sourcePoint" />
            <mxPoint x="446.2400000000001" y="245" as="targetPoint" />
          </mxGeometry>
        </mxCell>
        <mxCell id="cu7rC33EsS3bLq7DKkPL-64" value="" style="endArrow=classic;html=1;rounded=0;" parent="1" edge="1">
          <mxGeometry width="50" height="50" relative="1" as="geometry">
            <mxPoint x="446.2400000000001" y="245" as="sourcePoint" />
            <mxPoint x="356.2400000000001" y="245" as="targetPoint" />
          </mxGeometry>
        </mxCell>
        <mxCell id="cu7rC33EsS3bLq7DKkPL-65" value="" style="edgeStyle=orthogonalEdgeStyle;rounded=0;orthogonalLoop=1;jettySize=auto;html=1;" parent="1" source="cu7rC33EsS3bLq7DKkPL-66" target="cu7rC33EsS3bLq7DKkPL-68" edge="1">
          <mxGeometry relative="1" as="geometry">
            <Array as="points">
              <mxPoint x="261.74" y="375" />
            </Array>
          </mxGeometry>
        </mxCell>
        <mxCell id="cu7rC33EsS3bLq7DKkPL-74" value="Si" style="edgeLabel;html=1;align=center;verticalAlign=middle;resizable=0;points=[];" parent="cu7rC33EsS3bLq7DKkPL-65" vertex="1" connectable="0">
          <mxGeometry x="-0.4147" y="-1" relative="1" as="geometry">
            <mxPoint as="offset" />
          </mxGeometry>
        </mxCell>
        <mxCell id="cu7rC33EsS3bLq7DKkPL-66" value="longitud es válido" style="rhombus;whiteSpace=wrap;html=1;" parent="1" vertex="1">
          <mxGeometry x="114.86" y="335" width="80" height="80" as="geometry" />
        </mxCell>
        <mxCell id="cu7rC33EsS3bLq7DKkPL-77" value="" style="edgeStyle=orthogonalEdgeStyle;rounded=0;orthogonalLoop=1;jettySize=auto;html=1;" parent="1" source="cu7rC33EsS3bLq7DKkPL-68" target="cu7rC33EsS3bLq7DKkPL-52" edge="1">
          <mxGeometry relative="1" as="geometry" />
        </mxCell>
        <mxCell id="cu7rC33EsS3bLq7DKkPL-68" value="retornar longitud" style="rounded=0;whiteSpace=wrap;html=1;" parent="1" vertex="1">
          <mxGeometry x="224.24" y="445" width="80" height="30" as="geometry" />
        </mxCell>
        <mxCell id="cu7rC33EsS3bLq7DKkPL-70" value="" style="edgeStyle=orthogonalEdgeStyle;rounded=0;orthogonalLoop=1;jettySize=auto;html=1;" parent="1" source="cu7rC33EsS3bLq7DKkPL-71" target="cu7rC33EsS3bLq7DKkPL-66" edge="1">
          <mxGeometry relative="1" as="geometry" />
        </mxCell>
        <mxCell id="cu7rC33EsS3bLq7DKkPL-71" value="longitud" style="shape=parallelogram;perimeter=parallelogramPerimeter;whiteSpace=wrap;html=1;fixedSize=1;size=10;" parent="1" vertex="1">
          <mxGeometry x="109.86" y="265" width="90" height="40" as="geometry" />
        </mxCell>
        <mxCell id="cu7rC33EsS3bLq7DKkPL-72" value="" style="endArrow=none;html=1;rounded=0;entryX=0;entryY=0.5;entryDx=0;entryDy=0;" parent="1" target="cu7rC33EsS3bLq7DKkPL-53" edge="1">
          <mxGeometry width="50" height="50" relative="1" as="geometry">
            <mxPoint x="159.86" y="235" as="sourcePoint" />
            <mxPoint x="201.74" y="245" as="targetPoint" />
          </mxGeometry>
        </mxCell>
        <mxCell id="cu7rC33EsS3bLq7DKkPL-237" value="No" style="edgeLabel;html=1;align=center;verticalAlign=middle;resizable=0;points=[];" parent="cu7rC33EsS3bLq7DKkPL-72" vertex="1" connectable="0">
          <mxGeometry x="-0.1578" relative="1" as="geometry">
            <mxPoint as="offset" />
          </mxGeometry>
        </mxCell>
        <mxCell id="cu7rC33EsS3bLq7DKkPL-73" value="" style="endArrow=classic;html=1;rounded=0;entryX=0.572;entryY=-0.011;entryDx=0;entryDy=0;entryPerimeter=0;" parent="1" target="cu7rC33EsS3bLq7DKkPL-71" edge="1">
          <mxGeometry width="50" height="50" relative="1" as="geometry">
            <mxPoint x="159.86" y="235" as="sourcePoint" />
            <mxPoint x="229.86" y="245" as="targetPoint" />
          </mxGeometry>
        </mxCell>
        <mxCell id="cu7rC33EsS3bLq7DKkPL-75" value="" style="endArrow=none;html=1;rounded=0;entryX=0;entryY=0.5;entryDx=0;entryDy=0;" parent="1" target="cu7rC33EsS3bLq7DKkPL-43" edge="1">
          <mxGeometry width="50" height="50" relative="1" as="geometry">
            <mxPoint x="261.74" y="375" as="sourcePoint" />
            <mxPoint x="271.74" y="375" as="targetPoint" />
          </mxGeometry>
        </mxCell>
        <mxCell id="cu7rC33EsS3bLq7DKkPL-76" value="Si" style="edgeLabel;html=1;align=center;verticalAlign=middle;resizable=0;points=[];" parent="cu7rC33EsS3bLq7DKkPL-75" vertex="1" connectable="0">
          <mxGeometry x="0.0892" relative="1" as="geometry">
            <mxPoint as="offset" />
          </mxGeometry>
        </mxCell>
        <mxCell id="cu7rC33EsS3bLq7DKkPL-78" value="" style="endArrow=none;html=1;rounded=0;" parent="1" edge="1">
          <mxGeometry width="50" height="50" relative="1" as="geometry">
            <mxPoint x="49.86" y="375" as="sourcePoint" />
            <mxPoint x="114.86" y="375" as="targetPoint" />
          </mxGeometry>
        </mxCell>
        <mxCell id="cu7rC33EsS3bLq7DKkPL-79" value="No" style="edgeLabel;html=1;align=center;verticalAlign=middle;resizable=0;points=[];" parent="cu7rC33EsS3bLq7DKkPL-78" vertex="1" connectable="0">
          <mxGeometry x="-0.0649" y="1" relative="1" as="geometry">
            <mxPoint as="offset" />
          </mxGeometry>
        </mxCell>
        <mxCell id="cu7rC33EsS3bLq7DKkPL-80" value="error" style="shape=document;whiteSpace=wrap;html=1;boundedLbl=1;" parent="1" vertex="1">
          <mxGeometry x="19.860000000000113" y="335" width="60" height="30" as="geometry" />
        </mxCell>
        <mxCell id="cu7rC33EsS3bLq7DKkPL-81" value="" style="endArrow=none;html=1;rounded=0;" parent="1" target="cu7rC33EsS3bLq7DKkPL-80" edge="1">
          <mxGeometry width="50" height="50" relative="1" as="geometry">
            <mxPoint x="49.86" y="375" as="sourcePoint" />
            <mxPoint x="99.86" y="325" as="targetPoint" />
          </mxGeometry>
        </mxCell>
        <mxCell id="cu7rC33EsS3bLq7DKkPL-82" value="" style="endArrow=none;html=1;rounded=0;exitX=0.5;exitY=0;exitDx=0;exitDy=0;" parent="1" source="cu7rC33EsS3bLq7DKkPL-80" edge="1">
          <mxGeometry width="50" height="50" relative="1" as="geometry">
            <mxPoint x="239.86" y="265" as="sourcePoint" />
            <mxPoint x="49.86" y="245" as="targetPoint" />
          </mxGeometry>
        </mxCell>
        <mxCell id="cu7rC33EsS3bLq7DKkPL-83" value="" style="endArrow=classic;html=1;rounded=0;" parent="1" edge="1">
          <mxGeometry width="50" height="50" relative="1" as="geometry">
            <mxPoint x="49.86" y="245" as="sourcePoint" />
            <mxPoint x="159.86" y="245" as="targetPoint" />
          </mxGeometry>
        </mxCell>
        <mxCell id="cu7rC33EsS3bLq7DKkPL-124" value="" style="edgeStyle=orthogonalEdgeStyle;rounded=0;orthogonalLoop=1;jettySize=auto;html=1;" parent="1" source="cu7rC33EsS3bLq7DKkPL-125" target="cu7rC33EsS3bLq7DKkPL-127" edge="1">
          <mxGeometry relative="1" as="geometry" />
        </mxCell>
        <mxCell id="cu7rC33EsS3bLq7DKkPL-125" value="inicio" style="ellipse;whiteSpace=wrap;html=1;" parent="1" vertex="1">
          <mxGeometry x="462.48" y="530" width="100" height="60" as="geometry" />
        </mxCell>
        <mxCell id="cu7rC33EsS3bLq7DKkPL-126" value="" style="edgeStyle=orthogonalEdgeStyle;rounded=0;orthogonalLoop=1;jettySize=auto;html=1;" parent="1" source="cu7rC33EsS3bLq7DKkPL-127" edge="1">
          <mxGeometry relative="1" as="geometry">
            <mxPoint x="512.48" y="680" as="targetPoint" />
          </mxGeometry>
        </mxCell>
        <mxCell id="cu7rC33EsS3bLq7DKkPL-127" value="grande = false" style="rounded=0;whiteSpace=wrap;html=1;" parent="1" vertex="1">
          <mxGeometry x="464.98" y="620" width="95" height="30" as="geometry" />
        </mxCell>
        <mxCell id="cu7rC33EsS3bLq7DKkPL-128" value="&lt;span style=&quot;background-color: initial;&quot;&gt;clasificar&lt;/span&gt;&lt;span style=&quot;background-color: initial;&quot;&gt;(&lt;/span&gt;&lt;span style=&quot;background-color: initial;&quot;&gt;float&lt;/span&gt;&lt;span style=&quot;background-color: initial;&quot;&gt; &lt;/span&gt;&lt;span style=&quot;background-color: initial;&quot;&gt;area&lt;/span&gt;&lt;span style=&quot;background-color: initial;&quot;&gt;)&lt;/span&gt;" style="text;html=1;align=center;verticalAlign=middle;resizable=0;points=[];autosize=1;strokeColor=none;fillColor=none;" parent="1" vertex="1">
          <mxGeometry x="442.48" y="500" width="130" height="30" as="geometry" />
        </mxCell>
        <mxCell id="cu7rC33EsS3bLq7DKkPL-129" value="" style="edgeStyle=orthogonalEdgeStyle;rounded=0;orthogonalLoop=1;jettySize=auto;html=1;" parent="1" source="cu7rC33EsS3bLq7DKkPL-130" target="cu7rC33EsS3bLq7DKkPL-131" edge="1">
          <mxGeometry relative="1" as="geometry" />
        </mxCell>
        <mxCell id="cu7rC33EsS3bLq7DKkPL-130" value="imprimir tamaño del área" style="rounded=0;whiteSpace=wrap;html=1;" parent="1" vertex="1">
          <mxGeometry x="469.98" y="680" width="92.5" height="40" as="geometry" />
        </mxCell>
        <mxCell id="cu7rC33EsS3bLq7DKkPL-131" value="area &amp;lt; 12" style="rhombus;whiteSpace=wrap;html=1;" parent="1" vertex="1">
          <mxGeometry x="476.23" y="750" width="80" height="65" as="geometry" />
        </mxCell>
        <mxCell id="cu7rC33EsS3bLq7DKkPL-132" value="" style="endArrow=none;html=1;rounded=0;" parent="1" edge="1">
          <mxGeometry width="50" height="50" relative="1" as="geometry">
            <mxPoint x="556.23" y="782.64" as="sourcePoint" />
            <mxPoint x="592.48" y="782.27" as="targetPoint" />
          </mxGeometry>
        </mxCell>
        <mxCell id="cu7rC33EsS3bLq7DKkPL-144" value="No" style="edgeLabel;html=1;align=center;verticalAlign=middle;resizable=0;points=[];" parent="cu7rC33EsS3bLq7DKkPL-132" vertex="1" connectable="0">
          <mxGeometry x="-0.1072" y="1" relative="1" as="geometry">
            <mxPoint as="offset" />
          </mxGeometry>
        </mxCell>
        <mxCell id="cu7rC33EsS3bLq7DKkPL-133" value="" style="endArrow=none;html=1;rounded=0;entryX=0;entryY=0.5;entryDx=0;entryDy=0;" parent="1" target="cu7rC33EsS3bLq7DKkPL-131" edge="1">
          <mxGeometry width="50" height="50" relative="1" as="geometry">
            <mxPoint x="432.48" y="782.36" as="sourcePoint" />
            <mxPoint x="416.23" y="782.2560000000003" as="targetPoint" />
          </mxGeometry>
        </mxCell>
        <mxCell id="cu7rC33EsS3bLq7DKkPL-134" value="Si" style="edgeLabel;html=1;align=center;verticalAlign=middle;resizable=0;points=[];" parent="cu7rC33EsS3bLq7DKkPL-133" vertex="1" connectable="0">
          <mxGeometry x="-0.1774" y="1" relative="1" as="geometry">
            <mxPoint as="offset" />
          </mxGeometry>
        </mxCell>
        <mxCell id="cu7rC33EsS3bLq7DKkPL-136" value="" style="endArrow=classic;html=1;rounded=0;" parent="1" edge="1">
          <mxGeometry width="50" height="50" relative="1" as="geometry">
            <mxPoint x="432.48" y="780" as="sourcePoint" />
            <mxPoint x="432.48" y="829.9964705882353" as="targetPoint" />
          </mxGeometry>
        </mxCell>
        <mxCell id="cu7rC33EsS3bLq7DKkPL-138" value="imprimir Pequeño" style="rounded=0;whiteSpace=wrap;html=1;" parent="1" vertex="1">
          <mxGeometry x="402.48" y="830" width="60" height="30" as="geometry" />
        </mxCell>
        <mxCell id="cu7rC33EsS3bLq7DKkPL-139" value="&lt;span style=&quot;background-color: initial;&quot;&gt;area&lt;/span&gt;&lt;span style=&quot;background-color: initial;&quot;&gt; &lt;/span&gt;&lt;span style=&quot;background-color: initial;&quot;&gt;&amp;gt;&lt;/span&gt;&lt;span style=&quot;background-color: initial;&quot;&gt; &lt;/span&gt;&lt;span style=&quot;background-color: initial;&quot;&gt;12&lt;/span&gt;&lt;span style=&quot;background-color: initial;&quot;&gt; &lt;/span&gt;&lt;span style=&quot;background-color: initial;&quot;&gt;&amp;amp;&amp;amp;&lt;/span&gt;&lt;span style=&quot;background-color: initial;&quot;&gt; &lt;/span&gt;&lt;span style=&quot;background-color: initial;&quot;&gt;area&lt;/span&gt;&lt;span style=&quot;background-color: initial;&quot;&gt; &lt;/span&gt;&lt;span style=&quot;background-color: initial;&quot;&gt;&amp;lt;&lt;/span&gt;&lt;span style=&quot;background-color: initial;&quot;&gt; &lt;/span&gt;&lt;span style=&quot;background-color: initial;&quot;&gt;42&lt;/span&gt;" style="rhombus;whiteSpace=wrap;html=1;" parent="1" vertex="1">
          <mxGeometry x="590.48" y="741.25" width="92.5" height="82.5" as="geometry" />
        </mxCell>
        <mxCell id="cu7rC33EsS3bLq7DKkPL-140" value="" style="endArrow=classic;html=1;rounded=0;exitX=0.501;exitY=0.968;exitDx=0;exitDy=0;exitPerimeter=0;entryX=0.5;entryY=-0.081;entryDx=0;entryDy=0;entryPerimeter=0;" parent="1" target="cu7rC33EsS3bLq7DKkPL-142" edge="1">
          <mxGeometry width="50" height="50" relative="1" as="geometry">
            <mxPoint x="636.9025000000001" y="823.7500000000001" as="sourcePoint" />
            <mxPoint x="636.56" y="862.64" as="targetPoint" />
          </mxGeometry>
        </mxCell>
        <mxCell id="cu7rC33EsS3bLq7DKkPL-141" value="Si" style="edgeLabel;html=1;align=center;verticalAlign=middle;resizable=0;points=[];" parent="cu7rC33EsS3bLq7DKkPL-140" vertex="1" connectable="0">
          <mxGeometry x="-0.277" y="-1" relative="1" as="geometry">
            <mxPoint as="offset" />
          </mxGeometry>
        </mxCell>
        <mxCell id="cu7rC33EsS3bLq7DKkPL-142" value="imprimir Mediano" style="rounded=0;whiteSpace=wrap;html=1;" parent="1" vertex="1">
          <mxGeometry x="607.98" y="870" width="57.5" height="30" as="geometry" />
        </mxCell>
        <mxCell id="cu7rC33EsS3bLq7DKkPL-145" value="" style="endArrow=none;html=1;rounded=0;" parent="1" edge="1">
          <mxGeometry width="50" height="50" relative="1" as="geometry">
            <mxPoint x="682.98" y="782.41" as="sourcePoint" />
            <mxPoint x="762.48" y="782" as="targetPoint" />
          </mxGeometry>
        </mxCell>
        <mxCell id="cu7rC33EsS3bLq7DKkPL-146" value="No" style="edgeLabel;html=1;align=center;verticalAlign=middle;resizable=0;points=[];" parent="cu7rC33EsS3bLq7DKkPL-145" vertex="1" connectable="0">
          <mxGeometry x="-0.2109" relative="1" as="geometry">
            <mxPoint as="offset" />
          </mxGeometry>
        </mxCell>
        <mxCell id="cu7rC33EsS3bLq7DKkPL-149" value="imprimir Grande" style="rounded=0;whiteSpace=wrap;html=1;" parent="1" vertex="1">
          <mxGeometry x="737.48" y="850" width="57.5" height="30" as="geometry" />
        </mxCell>
        <mxCell id="cu7rC33EsS3bLq7DKkPL-150" value="grande = true" style="rounded=0;whiteSpace=wrap;html=1;" parent="1" vertex="1">
          <mxGeometry x="724.98" y="793.75" width="82.5" height="30" as="geometry" />
        </mxCell>
        <mxCell id="cu7rC33EsS3bLq7DKkPL-151" value="" style="endArrow=none;html=1;rounded=0;" parent="1" edge="1">
          <mxGeometry width="50" height="50" relative="1" as="geometry">
            <mxPoint x="762.48" y="780" as="sourcePoint" />
            <mxPoint x="762.48" y="793.75" as="targetPoint" />
          </mxGeometry>
        </mxCell>
        <mxCell id="cu7rC33EsS3bLq7DKkPL-152" value="" style="endArrow=classic;html=1;rounded=0;exitX=0.464;exitY=0.982;exitDx=0;exitDy=0;exitPerimeter=0;entryX=0.435;entryY=-0.018;entryDx=0;entryDy=0;entryPerimeter=0;" parent="1" source="cu7rC33EsS3bLq7DKkPL-150" target="cu7rC33EsS3bLq7DKkPL-149" edge="1">
          <mxGeometry width="50" height="50" relative="1" as="geometry">
            <mxPoint x="702.48" y="870" as="sourcePoint" />
            <mxPoint x="752.48" y="820" as="targetPoint" />
          </mxGeometry>
        </mxCell>
        <mxCell id="cu7rC33EsS3bLq7DKkPL-153" value="" style="endArrow=none;html=1;rounded=0;" parent="1" edge="1">
          <mxGeometry width="50" height="50" relative="1" as="geometry">
            <mxPoint x="635.48" y="930" as="sourcePoint" />
            <mxPoint x="635.73" y="900" as="targetPoint" />
          </mxGeometry>
        </mxCell>
        <mxCell id="cu7rC33EsS3bLq7DKkPL-154" value="" style="endArrow=none;html=1;rounded=0;" parent="1" edge="1">
          <mxGeometry width="50" height="50" relative="1" as="geometry">
            <mxPoint x="766.48" y="950" as="sourcePoint" />
            <mxPoint x="766.2" y="880" as="targetPoint" />
          </mxGeometry>
        </mxCell>
        <mxCell id="cu7rC33EsS3bLq7DKkPL-155" value="" style="endArrow=none;html=1;rounded=0;" parent="1" edge="1">
          <mxGeometry width="50" height="50" relative="1" as="geometry">
            <mxPoint x="432.48" y="950" as="sourcePoint" />
            <mxPoint x="432.20000000000005" y="860" as="targetPoint" />
          </mxGeometry>
        </mxCell>
        <mxCell id="cu7rC33EsS3bLq7DKkPL-156" value="retornar grande" style="rounded=0;whiteSpace=wrap;html=1;" parent="1" vertex="1">
          <mxGeometry x="601.98" y="930" width="70.5" height="30" as="geometry" />
        </mxCell>
        <mxCell id="cu7rC33EsS3bLq7DKkPL-157" value="" style="endArrow=classic;html=1;rounded=0;entryX=-0.028;entryY=0.628;entryDx=0;entryDy=0;entryPerimeter=0;" parent="1" target="cu7rC33EsS3bLq7DKkPL-156" edge="1">
          <mxGeometry width="50" height="50" relative="1" as="geometry">
            <mxPoint x="432.48" y="950" as="sourcePoint" />
            <mxPoint x="662.48" y="870" as="targetPoint" />
          </mxGeometry>
        </mxCell>
        <mxCell id="cu7rC33EsS3bLq7DKkPL-158" value="" style="endArrow=classic;html=1;rounded=0;entryX=0.996;entryY=0.641;entryDx=0;entryDy=0;entryPerimeter=0;" parent="1" target="cu7rC33EsS3bLq7DKkPL-156" edge="1">
          <mxGeometry width="50" height="50" relative="1" as="geometry">
            <mxPoint x="772.48" y="949" as="sourcePoint" />
            <mxPoint x="662.48" y="870" as="targetPoint" />
          </mxGeometry>
        </mxCell>
        <mxCell id="cu7rC33EsS3bLq7DKkPL-159" value="fin" style="ellipse;whiteSpace=wrap;html=1;" parent="1" vertex="1">
          <mxGeometry x="601.98" y="1000" width="70.5" height="50" as="geometry" />
        </mxCell>
        <mxCell id="cu7rC33EsS3bLq7DKkPL-160" value="" style="endArrow=classic;html=1;rounded=0;exitX=0.5;exitY=1;exitDx=0;exitDy=0;entryX=0.5;entryY=0;entryDx=0;entryDy=0;" parent="1" source="cu7rC33EsS3bLq7DKkPL-156" target="cu7rC33EsS3bLq7DKkPL-159" edge="1">
          <mxGeometry width="50" height="50" relative="1" as="geometry">
            <mxPoint x="592.48" y="990" as="sourcePoint" />
            <mxPoint x="642.48" y="940" as="targetPoint" />
          </mxGeometry>
        </mxCell>
        <mxCell id="cu7rC33EsS3bLq7DKkPL-161" value="" style="edgeStyle=orthogonalEdgeStyle;rounded=0;orthogonalLoop=1;jettySize=auto;html=1;" parent="1" source="cu7rC33EsS3bLq7DKkPL-162" target="cu7rC33EsS3bLq7DKkPL-163" edge="1">
          <mxGeometry relative="1" as="geometry" />
        </mxCell>
        <mxCell id="cu7rC33EsS3bLq7DKkPL-162" value="inicio" style="ellipse;whiteSpace=wrap;html=1;" parent="1" vertex="1">
          <mxGeometry x="160" y="660" width="100" height="60" as="geometry" />
        </mxCell>
        <mxCell id="cu7rC33EsS3bLq7DKkPL-163" value="imprimir porcentaje" style="rounded=0;whiteSpace=wrap;html=1;" parent="1" vertex="1">
          <mxGeometry x="162.5" y="750" width="95" height="30" as="geometry" />
        </mxCell>
        <mxCell id="cu7rC33EsS3bLq7DKkPL-164" value="&lt;font style=&quot;font-size: 9px;&quot;&gt;&lt;span style=&quot;background-color: initial;&quot;&gt;resumen&lt;/span&gt;&lt;span style=&quot;background-color: initial;&quot;&gt;(&lt;/span&gt;&lt;span style=&quot;background-color: initial;&quot;&gt;float&lt;/span&gt;&lt;span style=&quot;background-color: initial;&quot;&gt; &lt;/span&gt;&lt;span style=&quot;background-color: initial;&quot;&gt;porcentaje&lt;/span&gt;&lt;span style=&quot;background-color: initial;&quot;&gt;,&lt;/span&gt;&lt;span style=&quot;background-color: initial;&quot;&gt; &lt;/span&gt;&lt;span style=&quot;background-color: initial;&quot;&gt;int&lt;/span&gt;&lt;span style=&quot;background-color: initial;&quot;&gt; &lt;/span&gt;&lt;span style=&quot;background-color: initial;&quot;&gt;grandes&lt;/span&gt;&lt;span style=&quot;background-color: initial;&quot;&gt;,&lt;/span&gt;&lt;span style=&quot;background-color: initial;&quot;&gt; &lt;/span&gt;&lt;span style=&quot;background-color: initial;&quot;&gt;float&lt;/span&gt;&lt;span style=&quot;background-color: initial;&quot;&gt; &lt;/span&gt;&lt;span style=&quot;background-color: initial;&quot;&gt;promedio&lt;/span&gt;&lt;span style=&quot;background-color: initial;&quot;&gt;,&lt;/span&gt;&lt;span style=&quot;background-color: initial;&quot;&gt; &lt;/span&gt;&lt;span style=&quot;background-color: initial;&quot;&gt;int&lt;/span&gt;&lt;span style=&quot;background-color: initial;&quot;&gt; &lt;/span&gt;&lt;span style=&quot;background-color: initial;&quot;&gt;mayores&lt;/span&gt;&lt;span style=&quot;background-color: initial;&quot;&gt;)&lt;/span&gt;&lt;/font&gt;" style="text;html=1;align=center;verticalAlign=middle;resizable=0;points=[];autosize=1;strokeColor=none;fillColor=none;" parent="1" vertex="1">
          <mxGeometry x="60" y="630" width="290" height="30" as="geometry" />
        </mxCell>
        <mxCell id="cu7rC33EsS3bLq7DKkPL-165" value="" style="edgeStyle=orthogonalEdgeStyle;rounded=0;orthogonalLoop=1;jettySize=auto;html=1;" parent="1" target="cu7rC33EsS3bLq7DKkPL-166" edge="1">
          <mxGeometry relative="1" as="geometry">
            <mxPoint x="210" y="780" as="sourcePoint" />
          </mxGeometry>
        </mxCell>
        <mxCell id="cu7rC33EsS3bLq7DKkPL-166" value="imprimir grandes" style="rounded=0;whiteSpace=wrap;html=1;" parent="1" vertex="1">
          <mxGeometry x="162.5" y="810" width="95" height="30" as="geometry" />
        </mxCell>
        <mxCell id="cu7rC33EsS3bLq7DKkPL-167" value="" style="edgeStyle=orthogonalEdgeStyle;rounded=0;orthogonalLoop=1;jettySize=auto;html=1;" parent="1" target="cu7rC33EsS3bLq7DKkPL-168" edge="1">
          <mxGeometry relative="1" as="geometry">
            <mxPoint x="210" y="840" as="sourcePoint" />
          </mxGeometry>
        </mxCell>
        <mxCell id="cu7rC33EsS3bLq7DKkPL-168" value="imprimir promedio" style="rounded=0;whiteSpace=wrap;html=1;" parent="1" vertex="1">
          <mxGeometry x="162.5" y="870" width="95" height="30" as="geometry" />
        </mxCell>
        <mxCell id="cu7rC33EsS3bLq7DKkPL-169" value="" style="edgeStyle=orthogonalEdgeStyle;rounded=0;orthogonalLoop=1;jettySize=auto;html=1;" parent="1" target="cu7rC33EsS3bLq7DKkPL-170" edge="1">
          <mxGeometry relative="1" as="geometry">
            <mxPoint x="210" y="900" as="sourcePoint" />
          </mxGeometry>
        </mxCell>
        <mxCell id="cu7rC33EsS3bLq7DKkPL-170" value="imprimir mayores" style="rounded=0;whiteSpace=wrap;html=1;" parent="1" vertex="1">
          <mxGeometry x="162.5" y="930" width="95" height="30" as="geometry" />
        </mxCell>
        <mxCell id="cu7rC33EsS3bLq7DKkPL-222" value="&lt;span style=&quot;background-color: initial;&quot;&gt;calcularArea&lt;/span&gt;&lt;span style=&quot;background-color: initial;&quot;&gt;(&lt;/span&gt;&lt;span style=&quot;background-color: initial;&quot;&gt;float&lt;/span&gt;&lt;span style=&quot;background-color: initial;&quot;&gt; &lt;/span&gt;&lt;span style=&quot;background-color: initial;&quot;&gt;a&lt;/span&gt;&lt;span style=&quot;background-color: initial;&quot;&gt;,&lt;/span&gt;&lt;span style=&quot;background-color: initial;&quot;&gt; &lt;/span&gt;&lt;span style=&quot;background-color: initial;&quot;&gt;float&lt;/span&gt;&lt;span style=&quot;background-color: initial;&quot;&gt; &lt;/span&gt;&lt;span style=&quot;background-color: initial;&quot;&gt;b&lt;/span&gt;&lt;span style=&quot;background-color: initial;&quot;&gt;,&lt;/span&gt;&lt;span style=&quot;background-color: initial;&quot;&gt; &lt;/span&gt;&lt;span style=&quot;background-color: initial;&quot;&gt;float&lt;/span&gt;&lt;span style=&quot;background-color: initial;&quot;&gt; &lt;/span&gt;&lt;span style=&quot;background-color: initial;&quot;&gt;angulo&lt;/span&gt;&lt;span style=&quot;background-color: initial;&quot;&gt;)&lt;/span&gt;" style="text;html=1;align=center;verticalAlign=middle;resizable=0;points=[];autosize=1;strokeColor=none;fillColor=none;" parent="1" vertex="1">
          <mxGeometry x="90.00000000000001" y="1140" width="240" height="30" as="geometry" />
        </mxCell>
        <mxCell id="cu7rC33EsS3bLq7DKkPL-228" value="" style="edgeStyle=orthogonalEdgeStyle;rounded=0;orthogonalLoop=1;jettySize=auto;html=1;" parent="1" source="cu7rC33EsS3bLq7DKkPL-223" target="cu7rC33EsS3bLq7DKkPL-227" edge="1">
          <mxGeometry relative="1" as="geometry" />
        </mxCell>
        <mxCell id="cu7rC33EsS3bLq7DKkPL-223" value="area = 0" style="rounded=0;whiteSpace=wrap;html=1;" parent="1" vertex="1">
          <mxGeometry x="165.94000000000005" y="1247" width="82.5" height="30" as="geometry" />
        </mxCell>
        <mxCell id="cu7rC33EsS3bLq7DKkPL-226" value="" style="edgeStyle=orthogonalEdgeStyle;rounded=0;orthogonalLoop=1;jettySize=auto;html=1;" parent="1" source="cu7rC33EsS3bLq7DKkPL-224" target="cu7rC33EsS3bLq7DKkPL-223" edge="1">
          <mxGeometry relative="1" as="geometry" />
        </mxCell>
        <mxCell id="cu7rC33EsS3bLq7DKkPL-224" value="inicio" style="ellipse;whiteSpace=wrap;html=1;" parent="1" vertex="1">
          <mxGeometry x="172.19000000000005" y="1180" width="70" height="40" as="geometry" />
        </mxCell>
        <mxCell id="cu7rC33EsS3bLq7DKkPL-230" value="" style="edgeStyle=orthogonalEdgeStyle;rounded=0;orthogonalLoop=1;jettySize=auto;html=1;" parent="1" source="cu7rC33EsS3bLq7DKkPL-227" target="cu7rC33EsS3bLq7DKkPL-229" edge="1">
          <mxGeometry relative="1" as="geometry" />
        </mxCell>
        <mxCell id="cu7rC33EsS3bLq7DKkPL-227" value="radianes = angulo * PI / 180" style="rounded=0;whiteSpace=wrap;html=1;" parent="1" vertex="1">
          <mxGeometry x="122.34000000000005" y="1312" width="169.69" height="35" as="geometry" />
        </mxCell>
        <mxCell id="cu7rC33EsS3bLq7DKkPL-232" value="" style="edgeStyle=orthogonalEdgeStyle;rounded=0;orthogonalLoop=1;jettySize=auto;html=1;" parent="1" source="cu7rC33EsS3bLq7DKkPL-229" target="cu7rC33EsS3bLq7DKkPL-231" edge="1">
          <mxGeometry relative="1" as="geometry" />
        </mxCell>
        <mxCell id="cu7rC33EsS3bLq7DKkPL-229" value="area = 0.5 * (a*b) * sin(radianes)" style="rounded=0;whiteSpace=wrap;html=1;" parent="1" vertex="1">
          <mxGeometry x="115.62000000000002" y="1387" width="183.13" height="30" as="geometry" />
        </mxCell>
        <mxCell id="cu7rC33EsS3bLq7DKkPL-234" value="" style="edgeStyle=orthogonalEdgeStyle;rounded=0;orthogonalLoop=1;jettySize=auto;html=1;" parent="1" source="cu7rC33EsS3bLq7DKkPL-231" target="cu7rC33EsS3bLq7DKkPL-233" edge="1">
          <mxGeometry relative="1" as="geometry" />
        </mxCell>
        <mxCell id="cu7rC33EsS3bLq7DKkPL-231" value="retornar area" style="rounded=0;whiteSpace=wrap;html=1;" parent="1" vertex="1">
          <mxGeometry x="159.38" y="1443.25" width="94.37" height="30" as="geometry" />
        </mxCell>
        <mxCell id="cu7rC33EsS3bLq7DKkPL-233" value="fin" style="ellipse;whiteSpace=wrap;html=1;" parent="1" vertex="1">
          <mxGeometry x="176.55999999999995" y="1502" width="60" height="36.25" as="geometry" />
        </mxCell>
        <mxCell id="cu7rC33EsS3bLq7DKkPL-235" value="" style="endArrow=none;html=1;rounded=0;exitX=1;exitY=0.5;exitDx=0;exitDy=0;" parent="1" source="cu7rC33EsS3bLq7DKkPL-53" edge="1">
          <mxGeometry width="50" height="50" relative="1" as="geometry">
            <mxPoint x="299.86" y="305" as="sourcePoint" />
            <mxPoint x="359.86" y="235" as="targetPoint" />
          </mxGeometry>
        </mxCell>
        <mxCell id="cu7rC33EsS3bLq7DKkPL-236" value="Si" style="edgeLabel;html=1;align=center;verticalAlign=middle;resizable=0;points=[];" parent="cu7rC33EsS3bLq7DKkPL-235" vertex="1" connectable="0">
          <mxGeometry x="-0.4321" y="2" relative="1" as="geometry">
            <mxPoint as="offset" />
          </mxGeometry>
        </mxCell>
        <mxCell id="cu7rC33EsS3bLq7DKkPL-238" value="&lt;span style=&quot;background-color: initial;&quot;&gt;calcularPorcentaje&lt;/span&gt;&lt;span style=&quot;background-color: initial;&quot;&gt;(&lt;/span&gt;&lt;span style=&quot;background-color: initial;&quot;&gt;int&lt;/span&gt;&lt;span style=&quot;background-color: initial;&quot;&gt; &lt;/span&gt;&lt;span style=&quot;background-color: initial;&quot;&gt;grandes&lt;/span&gt;&lt;span style=&quot;background-color: initial;&quot;&gt;,&lt;/span&gt;&lt;span style=&quot;background-color: initial;&quot;&gt; &lt;/span&gt;&lt;span style=&quot;background-color: initial;&quot;&gt;int&lt;/span&gt;&lt;span style=&quot;background-color: initial;&quot;&gt; &lt;/span&gt;&lt;span style=&quot;background-color: initial;&quot;&gt;total&lt;/span&gt;&lt;span style=&quot;background-color: initial;&quot;&gt;)&lt;/span&gt;" style="text;html=1;align=center;verticalAlign=middle;resizable=0;points=[];autosize=1;strokeColor=none;fillColor=none;" parent="1" vertex="1">
          <mxGeometry x="512.79" y="1150" width="240" height="30" as="geometry" />
        </mxCell>
        <mxCell id="cu7rC33EsS3bLq7DKkPL-247" value="" style="edgeStyle=orthogonalEdgeStyle;rounded=0;orthogonalLoop=1;jettySize=auto;html=1;" parent="1" source="cu7rC33EsS3bLq7DKkPL-241" target="cu7rC33EsS3bLq7DKkPL-246" edge="1">
          <mxGeometry relative="1" as="geometry" />
        </mxCell>
        <mxCell id="cu7rC33EsS3bLq7DKkPL-241" value="porcentaje = (grandes * 100) / total * 1.0" style="rounded=0;whiteSpace=wrap;html=1;" parent="1" vertex="1">
          <mxGeometry x="550.29" y="1257" width="166.25" height="30" as="geometry" />
        </mxCell>
        <mxCell id="cu7rC33EsS3bLq7DKkPL-242" value="" style="edgeStyle=orthogonalEdgeStyle;rounded=0;orthogonalLoop=1;jettySize=auto;html=1;" parent="1" source="cu7rC33EsS3bLq7DKkPL-243" target="cu7rC33EsS3bLq7DKkPL-241" edge="1">
          <mxGeometry relative="1" as="geometry" />
        </mxCell>
        <mxCell id="cu7rC33EsS3bLq7DKkPL-243" value="inicio" style="ellipse;whiteSpace=wrap;html=1;" parent="1" vertex="1">
          <mxGeometry x="597.7900000000001" y="1190" width="70" height="40" as="geometry" />
        </mxCell>
        <mxCell id="cu7rC33EsS3bLq7DKkPL-244" value="" style="edgeStyle=orthogonalEdgeStyle;rounded=0;orthogonalLoop=1;jettySize=auto;html=1;" parent="1" source="cu7rC33EsS3bLq7DKkPL-245" target="cu7rC33EsS3bLq7DKkPL-246" edge="1">
          <mxGeometry relative="1" as="geometry" />
        </mxCell>
        <mxCell id="cu7rC33EsS3bLq7DKkPL-245" value="retornar porcentaje" style="rounded=0;whiteSpace=wrap;html=1;" parent="1" vertex="1">
          <mxGeometry x="585.61" y="1310" width="94.37" height="30" as="geometry" />
        </mxCell>
        <mxCell id="cu7rC33EsS3bLq7DKkPL-246" value="fin" style="ellipse;whiteSpace=wrap;html=1;" parent="1" vertex="1">
          <mxGeometry x="602.79" y="1368.75" width="60" height="36.25" as="geometry" />
        </mxCell>
        <mxCell id="cu7rC33EsS3bLq7DKkPL-248" value="&lt;span style=&quot;background-color: initial;&quot;&gt;i&lt;/span&gt;&lt;span style=&quot;background-color: initial;&quot;&gt;contarMayoresQuePromedio&lt;/span&gt;&lt;span style=&quot;background-color: initial;&quot;&gt;(&lt;/span&gt;&lt;span style=&quot;background-color: initial;&quot;&gt;float&lt;/span&gt;&lt;span style=&quot;background-color: initial;&quot;&gt; &lt;/span&gt;&lt;span style=&quot;background-color: initial;&quot;&gt;arreglo&lt;/span&gt;&lt;span style=&quot;background-color: initial;&quot;&gt;[],&lt;/span&gt;&lt;span style=&quot;background-color: initial;&quot;&gt;&amp;nbsp;&lt;/span&gt;&lt;div&gt;&lt;span style=&quot;background-color: initial;&quot;&gt;int&lt;/span&gt;&lt;span style=&quot;background-color: initial;&quot;&gt; &lt;/span&gt;&lt;span style=&quot;background-color: initial;&quot;&gt;size&lt;/span&gt;&lt;span style=&quot;background-color: initial;&quot;&gt;,&lt;/span&gt;&lt;span style=&quot;background-color: initial;&quot;&gt; &lt;/span&gt;&lt;span style=&quot;background-color: initial;&quot;&gt;float&lt;/span&gt;&lt;span style=&quot;background-color: initial;&quot;&gt; &lt;/span&gt;&lt;span style=&quot;background-color: initial;&quot;&gt;promedio&lt;/span&gt;&lt;span style=&quot;background-color: initial;&quot;&gt;)&lt;/span&gt;&lt;/div&gt;" style="text;html=1;align=center;verticalAlign=middle;resizable=0;points=[];autosize=1;strokeColor=none;fillColor=none;" parent="1" vertex="1">
          <mxGeometry x="46.74" y="1715" width="260" height="40" as="geometry" />
        </mxCell>
        <mxCell id="cu7rC33EsS3bLq7DKkPL-253" value="" style="edgeStyle=orthogonalEdgeStyle;rounded=0;orthogonalLoop=1;jettySize=auto;html=1;" parent="1" source="cu7rC33EsS3bLq7DKkPL-249" target="cu7rC33EsS3bLq7DKkPL-252" edge="1">
          <mxGeometry relative="1" as="geometry" />
        </mxCell>
        <mxCell id="cu7rC33EsS3bLq7DKkPL-249" value="contador = 0" style="rounded=0;whiteSpace=wrap;html=1;" parent="1" vertex="1">
          <mxGeometry x="118.72000000000007" y="1822" width="82.5" height="30" as="geometry" />
        </mxCell>
        <mxCell id="cu7rC33EsS3bLq7DKkPL-250" value="" style="edgeStyle=orthogonalEdgeStyle;rounded=0;orthogonalLoop=1;jettySize=auto;html=1;" parent="1" source="cu7rC33EsS3bLq7DKkPL-251" target="cu7rC33EsS3bLq7DKkPL-249" edge="1">
          <mxGeometry relative="1" as="geometry" />
        </mxCell>
        <mxCell id="cu7rC33EsS3bLq7DKkPL-251" value="inicio" style="ellipse;whiteSpace=wrap;html=1;" parent="1" vertex="1">
          <mxGeometry x="124.97000000000007" y="1755" width="70" height="40" as="geometry" />
        </mxCell>
        <mxCell id="cu7rC33EsS3bLq7DKkPL-252" value="i = 0" style="rounded=0;whiteSpace=wrap;html=1;" parent="1" vertex="1">
          <mxGeometry x="143.10000000000002" y="1884" width="34.07" height="20" as="geometry" />
        </mxCell>
        <mxCell id="cu7rC33EsS3bLq7DKkPL-254" value="i &amp;lt; size" style="rhombus;whiteSpace=wrap;html=1;" parent="1" vertex="1">
          <mxGeometry x="134.67000000000002" y="1949.63" width="50" height="50" as="geometry" />
        </mxCell>
        <mxCell id="cu7rC33EsS3bLq7DKkPL-256" value="" style="endArrow=classic;html=1;rounded=0;entryX=0.5;entryY=0;entryDx=0;entryDy=0;" parent="1" target="cu7rC33EsS3bLq7DKkPL-254" edge="1">
          <mxGeometry width="50" height="50" relative="1" as="geometry">
            <mxPoint x="159.67000000000002" y="1904" as="sourcePoint" />
            <mxPoint x="199.67000000000002" y="1864" as="targetPoint" />
          </mxGeometry>
        </mxCell>
        <mxCell id="cu7rC33EsS3bLq7DKkPL-257" value="" style="endArrow=none;html=1;rounded=0;" parent="1" edge="1">
          <mxGeometry width="50" height="50" relative="1" as="geometry">
            <mxPoint x="184.67000000000002" y="1974.46" as="sourcePoint" />
            <mxPoint x="209.37" y="1974.63" as="targetPoint" />
          </mxGeometry>
        </mxCell>
        <mxCell id="cu7rC33EsS3bLq7DKkPL-259" value="Si" style="edgeLabel;html=1;align=center;verticalAlign=middle;resizable=0;points=[];" parent="cu7rC33EsS3bLq7DKkPL-257" vertex="1" connectable="0">
          <mxGeometry x="-0.0349" y="-1" relative="1" as="geometry">
            <mxPoint as="offset" />
          </mxGeometry>
        </mxCell>
        <mxCell id="cu7rC33EsS3bLq7DKkPL-261" value="" style="edgeStyle=orthogonalEdgeStyle;rounded=0;orthogonalLoop=1;jettySize=auto;html=1;" parent="1" source="cu7rC33EsS3bLq7DKkPL-258" target="cu7rC33EsS3bLq7DKkPL-260" edge="1">
          <mxGeometry relative="1" as="geometry" />
        </mxCell>
        <mxCell id="cu7rC33EsS3bLq7DKkPL-258" value="i++" style="rounded=0;whiteSpace=wrap;html=1;" parent="1" vertex="1">
          <mxGeometry x="210.62" y="1964.63" width="40" height="20" as="geometry" />
        </mxCell>
        <mxCell id="cu7rC33EsS3bLq7DKkPL-260" value="arreglo[i] &amp;gt; promedio" style="rhombus;whiteSpace=wrap;html=1;" parent="1" vertex="1">
          <mxGeometry x="283.6" y="1944" width="92.51" height="61.25" as="geometry" />
        </mxCell>
        <mxCell id="cu7rC33EsS3bLq7DKkPL-262" value="" style="endArrow=none;html=1;rounded=0;" parent="1" edge="1">
          <mxGeometry width="50" height="50" relative="1" as="geometry">
            <mxPoint x="376.11" y="1974.3400000000001" as="sourcePoint" />
            <mxPoint x="399.37" y="1974.63" as="targetPoint" />
          </mxGeometry>
        </mxCell>
        <mxCell id="cu7rC33EsS3bLq7DKkPL-271" value="Si" style="edgeLabel;html=1;align=center;verticalAlign=middle;resizable=0;points=[];" parent="cu7rC33EsS3bLq7DKkPL-262" vertex="1" connectable="0">
          <mxGeometry x="-0.0914" relative="1" as="geometry">
            <mxPoint as="offset" />
          </mxGeometry>
        </mxCell>
        <mxCell id="cu7rC33EsS3bLq7DKkPL-263" value="contador++" style="rounded=0;whiteSpace=wrap;html=1;" parent="1" vertex="1">
          <mxGeometry x="402.48" y="1964.63" width="73.76" height="20" as="geometry" />
        </mxCell>
        <mxCell id="cu7rC33EsS3bLq7DKkPL-267" value="" style="endArrow=none;html=1;rounded=0;exitX=0.5;exitY=0;exitDx=0;exitDy=0;" parent="1" source="cu7rC33EsS3bLq7DKkPL-260" edge="1">
          <mxGeometry width="50" height="50" relative="1" as="geometry">
            <mxPoint x="329.6700000000001" y="1924" as="sourcePoint" />
            <mxPoint x="329.6700000000001" y="1914" as="targetPoint" />
          </mxGeometry>
        </mxCell>
        <mxCell id="cu7rC33EsS3bLq7DKkPL-272" value="No" style="edgeLabel;html=1;align=center;verticalAlign=middle;resizable=0;points=[];" parent="cu7rC33EsS3bLq7DKkPL-267" vertex="1" connectable="0">
          <mxGeometry x="0.3011" y="1" relative="1" as="geometry">
            <mxPoint as="offset" />
          </mxGeometry>
        </mxCell>
        <mxCell id="cu7rC33EsS3bLq7DKkPL-269" value="" style="endArrow=none;html=1;rounded=0;exitX=0.5;exitY=0;exitDx=0;exitDy=0;" parent="1" source="cu7rC33EsS3bLq7DKkPL-263" edge="1">
          <mxGeometry width="50" height="50" relative="1" as="geometry">
            <mxPoint x="236.54000000000008" y="1994" as="sourcePoint" />
            <mxPoint x="439.6700000000001" y="1914" as="targetPoint" />
          </mxGeometry>
        </mxCell>
        <mxCell id="cu7rC33EsS3bLq7DKkPL-270" value="" style="endArrow=classic;html=1;rounded=0;" parent="1" edge="1">
          <mxGeometry width="50" height="50" relative="1" as="geometry">
            <mxPoint x="439.6700000000001" y="1914" as="sourcePoint" />
            <mxPoint x="159.67000000000002" y="1914" as="targetPoint" />
          </mxGeometry>
        </mxCell>
        <mxCell id="cu7rC33EsS3bLq7DKkPL-273" value="" style="endArrow=classic;html=1;rounded=0;exitX=0.5;exitY=1;exitDx=0;exitDy=0;" parent="1" source="cu7rC33EsS3bLq7DKkPL-254" edge="1">
          <mxGeometry width="50" height="50" relative="1" as="geometry">
            <mxPoint x="209.67000000000002" y="2004" as="sourcePoint" />
            <mxPoint x="159.67000000000002" y="2054" as="targetPoint" />
          </mxGeometry>
        </mxCell>
        <mxCell id="cu7rC33EsS3bLq7DKkPL-274" value="No" style="edgeLabel;html=1;align=center;verticalAlign=middle;resizable=0;points=[];" parent="cu7rC33EsS3bLq7DKkPL-273" vertex="1" connectable="0">
          <mxGeometry x="-0.0385" y="1" relative="1" as="geometry">
            <mxPoint as="offset" />
          </mxGeometry>
        </mxCell>
        <mxCell id="cu7rC33EsS3bLq7DKkPL-275" value="retornar contador" style="rounded=0;whiteSpace=wrap;html=1;" parent="1" vertex="1">
          <mxGeometry x="124.04" y="2054" width="70" height="30" as="geometry" />
        </mxCell>
        <mxCell id="cu7rC33EsS3bLq7DKkPL-276" value="" style="edgeStyle=orthogonalEdgeStyle;rounded=0;orthogonalLoop=1;jettySize=auto;html=1;" parent="1" target="cu7rC33EsS3bLq7DKkPL-277" edge="1">
          <mxGeometry relative="1" as="geometry">
            <mxPoint x="160.19" y="2084" as="sourcePoint" />
          </mxGeometry>
        </mxCell>
        <mxCell id="cu7rC33EsS3bLq7DKkPL-277" value="fin" style="ellipse;whiteSpace=wrap;html=1;" parent="1" vertex="1">
          <mxGeometry x="130.12999999999994" y="2113" width="60" height="36.25" as="geometry" />
        </mxCell>
        <mxCell id="cu7rC33EsS3bLq7DKkPL-278" value="" style="edgeStyle=orthogonalEdgeStyle;rounded=0;orthogonalLoop=1;jettySize=auto;html=1;" parent="1" target="cu7rC33EsS3bLq7DKkPL-279" edge="1">
          <mxGeometry relative="1" as="geometry">
            <mxPoint x="210.06" y="960" as="sourcePoint" />
          </mxGeometry>
        </mxCell>
        <mxCell id="cu7rC33EsS3bLq7DKkPL-279" value="fin" style="ellipse;whiteSpace=wrap;html=1;" parent="1" vertex="1">
          <mxGeometry x="179.99999999999994" y="989" width="60" height="36.25" as="geometry" />
        </mxCell>
        <mxCell id="cu7rC33EsS3bLq7DKkPL-280" value="&lt;span style=&quot;background-color: initial;&quot;&gt;obtenerPromedio&lt;/span&gt;&lt;span style=&quot;background-color: initial;&quot;&gt;(&lt;/span&gt;&lt;span style=&quot;background-color: initial;&quot;&gt;float&lt;/span&gt;&lt;span style=&quot;background-color: initial;&quot;&gt; &lt;/span&gt;&lt;span style=&quot;background-color: initial;&quot;&gt;arreglo&lt;/span&gt;&lt;span style=&quot;background-color: initial;&quot;&gt;[],&lt;/span&gt;&lt;span style=&quot;background-color: initial;&quot;&gt; &lt;/span&gt;&lt;span style=&quot;background-color: initial;&quot;&gt;int&lt;/span&gt;&lt;span style=&quot;background-color: initial;&quot;&gt; &lt;/span&gt;&lt;span style=&quot;background-color: initial;&quot;&gt;size&lt;/span&gt;&lt;span style=&quot;background-color: initial;&quot;&gt;)&lt;/span&gt;" style="text;html=1;align=center;verticalAlign=middle;resizable=0;points=[];autosize=1;strokeColor=none;fillColor=none;" parent="1" vertex="1">
          <mxGeometry x="354.62000000000006" y="1479.75" width="240" height="30" as="geometry" />
        </mxCell>
        <mxCell id="cu7rC33EsS3bLq7DKkPL-281" value="inicio" style="ellipse;whiteSpace=wrap;html=1;" parent="1" vertex="1">
          <mxGeometry x="444.61999999999995" y="1509.75" width="60" height="40" as="geometry" />
        </mxCell>
        <mxCell id="cu7rC33EsS3bLq7DKkPL-285" value="" style="edgeStyle=orthogonalEdgeStyle;rounded=0;orthogonalLoop=1;jettySize=auto;html=1;" parent="1" target="cu7rC33EsS3bLq7DKkPL-284" edge="1">
          <mxGeometry relative="1" as="geometry">
            <mxPoint x="474.6" y="1606.75" as="sourcePoint" />
          </mxGeometry>
        </mxCell>
        <mxCell id="cu7rC33EsS3bLq7DKkPL-282" value="promedio = 0" style="rounded=0;whiteSpace=wrap;html=1;" parent="1" vertex="1">
          <mxGeometry x="437.0500000000001" y="1574.75" width="82.5" height="30" as="geometry" />
        </mxCell>
        <mxCell id="cu7rC33EsS3bLq7DKkPL-283" value="" style="edgeStyle=orthogonalEdgeStyle;rounded=0;orthogonalLoop=1;jettySize=auto;html=1;" parent="1" edge="1">
          <mxGeometry relative="1" as="geometry">
            <mxPoint x="475.06" y="1549.75" as="sourcePoint" />
            <mxPoint x="474.6" y="1576.75" as="targetPoint" />
          </mxGeometry>
        </mxCell>
        <mxCell id="cu7rC33EsS3bLq7DKkPL-290" value="" style="edgeStyle=orthogonalEdgeStyle;rounded=0;orthogonalLoop=1;jettySize=auto;html=1;entryX=0;entryY=0.5;entryDx=0;entryDy=0;" parent="1" source="cu7rC33EsS3bLq7DKkPL-284" target="cu7rC33EsS3bLq7DKkPL-288" edge="1">
          <mxGeometry relative="1" as="geometry" />
        </mxCell>
        <mxCell id="cu7rC33EsS3bLq7DKkPL-292" value="Si" style="edgeLabel;html=1;align=center;verticalAlign=middle;resizable=0;points=[];" parent="cu7rC33EsS3bLq7DKkPL-290" vertex="1" connectable="0">
          <mxGeometry x="-0.6338" relative="1" as="geometry">
            <mxPoint as="offset" />
          </mxGeometry>
        </mxCell>
        <mxCell id="cu7rC33EsS3bLq7DKkPL-306" value="" style="edgeStyle=orthogonalEdgeStyle;rounded=0;orthogonalLoop=1;jettySize=auto;html=1;" parent="1" source="cu7rC33EsS3bLq7DKkPL-284" target="cu7rC33EsS3bLq7DKkPL-305" edge="1">
          <mxGeometry relative="1" as="geometry" />
        </mxCell>
        <mxCell id="cu7rC33EsS3bLq7DKkPL-284" value="size != 1" style="rhombus;whiteSpace=wrap;html=1;" parent="1" vertex="1">
          <mxGeometry x="441.5" y="1633.75" width="66.25" height="54.37" as="geometry" />
        </mxCell>
        <mxCell id="cu7rC33EsS3bLq7DKkPL-286" value="" style="endArrow=none;html=1;rounded=0;" parent="1" edge="1">
          <mxGeometry width="50" height="50" relative="1" as="geometry">
            <mxPoint x="560.2499999999999" y="1660.7699999999995" as="sourcePoint" />
            <mxPoint x="600.2499999999999" y="1660.7699999999995" as="targetPoint" />
          </mxGeometry>
        </mxCell>
        <mxCell id="cu7rC33EsS3bLq7DKkPL-288" value="i = 0" style="rounded=0;whiteSpace=wrap;html=1;" parent="1" vertex="1">
          <mxGeometry x="537.9499999999999" y="1652.0299999999997" width="40" height="17.81" as="geometry" />
        </mxCell>
        <mxCell id="cu7rC33EsS3bLq7DKkPL-289" value="i &amp;lt; size" style="rhombus;whiteSpace=wrap;html=1;" parent="1" vertex="1">
          <mxGeometry x="594.6199999999999" y="1636.48" width="54.08" height="48.91" as="geometry" />
        </mxCell>
        <mxCell id="cu7rC33EsS3bLq7DKkPL-291" value="" style="endArrow=none;html=1;rounded=0;" parent="1" edge="1">
          <mxGeometry width="50" height="50" relative="1" as="geometry">
            <mxPoint x="648.6999999999999" y="1660.67" as="sourcePoint" />
            <mxPoint x="668.6999999999999" y="1660.75" as="targetPoint" />
          </mxGeometry>
        </mxCell>
        <mxCell id="cu7rC33EsS3bLq7DKkPL-294" value="Si" style="edgeLabel;html=1;align=center;verticalAlign=middle;resizable=0;points=[];" parent="cu7rC33EsS3bLq7DKkPL-291" vertex="1" connectable="0">
          <mxGeometry x="-0.177" relative="1" as="geometry">
            <mxPoint as="offset" />
          </mxGeometry>
        </mxCell>
        <mxCell id="cu7rC33EsS3bLq7DKkPL-296" value="" style="edgeStyle=orthogonalEdgeStyle;rounded=0;orthogonalLoop=1;jettySize=auto;html=1;" parent="1" source="cu7rC33EsS3bLq7DKkPL-293" target="cu7rC33EsS3bLq7DKkPL-295" edge="1">
          <mxGeometry relative="1" as="geometry" />
        </mxCell>
        <mxCell id="cu7rC33EsS3bLq7DKkPL-293" value="i++" style="rounded=0;whiteSpace=wrap;html=1;" parent="1" vertex="1">
          <mxGeometry x="668.6999999999999" y="1649.8399999999997" width="25.95" height="20" as="geometry" />
        </mxCell>
        <mxCell id="cu7rC33EsS3bLq7DKkPL-295" value="&lt;font style=&quot;font-size: 9px;&quot;&gt;promedio += arreglo[i]&lt;/font&gt;" style="rounded=0;whiteSpace=wrap;html=1;" parent="1" vertex="1">
          <mxGeometry x="713.1" y="1645.38" width="93.45" height="28.91" as="geometry" />
        </mxCell>
        <mxCell id="cu7rC33EsS3bLq7DKkPL-297" value="" style="endArrow=none;html=1;rounded=0;exitX=0.5;exitY=0;exitDx=0;exitDy=0;" parent="1" edge="1">
          <mxGeometry width="50" height="50" relative="1" as="geometry">
            <mxPoint x="754.465" y="1645.38" as="sourcePoint" />
            <mxPoint x="754.24" y="1618.75" as="targetPoint" />
          </mxGeometry>
        </mxCell>
        <mxCell id="cu7rC33EsS3bLq7DKkPL-298" value="" style="endArrow=none;html=1;rounded=0;" parent="1" edge="1">
          <mxGeometry width="50" height="50" relative="1" as="geometry">
            <mxPoint x="585.6" y="1618.75" as="sourcePoint" />
            <mxPoint x="755.6" y="1618.75" as="targetPoint" />
          </mxGeometry>
        </mxCell>
        <mxCell id="cu7rC33EsS3bLq7DKkPL-299" value="" style="endArrow=classic;html=1;rounded=0;" parent="1" edge="1">
          <mxGeometry width="50" height="50" relative="1" as="geometry">
            <mxPoint x="585.6" y="1618.75" as="sourcePoint" />
            <mxPoint x="585.6" y="1658.75" as="targetPoint" />
          </mxGeometry>
        </mxCell>
        <mxCell id="cu7rC33EsS3bLq7DKkPL-300" value="" style="endArrow=classic;html=1;rounded=0;" parent="1" edge="1">
          <mxGeometry width="50" height="50" relative="1" as="geometry">
            <mxPoint x="621.44" y="1685.3899999999999" as="sourcePoint" />
            <mxPoint x="621.44" y="1725.3899999999999" as="targetPoint" />
          </mxGeometry>
        </mxCell>
        <mxCell id="cu7rC33EsS3bLq7DKkPL-301" value="No" style="edgeLabel;html=1;align=center;verticalAlign=middle;resizable=0;points=[];" parent="cu7rC33EsS3bLq7DKkPL-300" vertex="1" connectable="0">
          <mxGeometry x="-0.2739" y="-1" relative="1" as="geometry">
            <mxPoint as="offset" />
          </mxGeometry>
        </mxCell>
        <mxCell id="cu7rC33EsS3bLq7DKkPL-302" value="&lt;font style=&quot;font-size: 10px;&quot;&gt;promedio = promedio / size&lt;/font&gt;" style="rounded=0;whiteSpace=wrap;html=1;" parent="1" vertex="1">
          <mxGeometry x="556.91" y="1725.0099999999998" width="129.5" height="14.37" as="geometry" />
        </mxCell>
        <mxCell id="cu7rC33EsS3bLq7DKkPL-309" style="edgeStyle=orthogonalEdgeStyle;rounded=0;orthogonalLoop=1;jettySize=auto;html=1;entryX=0.25;entryY=0;entryDx=0;entryDy=0;" parent="1" source="cu7rC33EsS3bLq7DKkPL-305" target="cu7rC33EsS3bLq7DKkPL-307" edge="1">
          <mxGeometry relative="1" as="geometry">
            <Array as="points">
              <mxPoint x="474.6" y="1758.75" />
              <mxPoint x="535.6" y="1758.75" />
            </Array>
          </mxGeometry>
        </mxCell>
        <mxCell id="cu7rC33EsS3bLq7DKkPL-305" value="promedio = arreglo[0]" style="rounded=0;whiteSpace=wrap;html=1;" parent="1" vertex="1">
          <mxGeometry x="437.05" y="1719.38" width="75.14" height="29.37" as="geometry" />
        </mxCell>
        <mxCell id="cu7rC33EsS3bLq7DKkPL-307" value="retornar promedio" style="rounded=0;whiteSpace=wrap;html=1;" parent="1" vertex="1">
          <mxGeometry x="515.87" y="1788.75" width="80" height="30" as="geometry" />
        </mxCell>
        <mxCell id="cu7rC33EsS3bLq7DKkPL-308" style="edgeStyle=orthogonalEdgeStyle;rounded=0;orthogonalLoop=1;jettySize=auto;html=1;entryX=0.822;entryY=0.023;entryDx=0;entryDy=0;entryPerimeter=0;" parent="1" source="cu7rC33EsS3bLq7DKkPL-302" target="cu7rC33EsS3bLq7DKkPL-307" edge="1">
          <mxGeometry relative="1" as="geometry" />
        </mxCell>
        <mxCell id="cu7rC33EsS3bLq7DKkPL-310" value="" style="edgeStyle=orthogonalEdgeStyle;rounded=0;orthogonalLoop=1;jettySize=auto;html=1;" parent="1" target="cu7rC33EsS3bLq7DKkPL-311" edge="1">
          <mxGeometry relative="1" as="geometry">
            <mxPoint x="560.16" y="1818.75" as="sourcePoint" />
          </mxGeometry>
        </mxCell>
        <mxCell id="cu7rC33EsS3bLq7DKkPL-311" value="fin" style="ellipse;whiteSpace=wrap;html=1;" parent="1" vertex="1">
          <mxGeometry x="530.0999999999999" y="1847.75" width="60" height="36.25" as="geometry" />
        </mxCell>
        <mxCell id="cu7rC33EsS3bLq7DKkPL-312" value="continuar" style="shape=parallelogram;perimeter=parallelogramPerimeter;whiteSpace=wrap;html=1;fixedSize=1;size=10;" parent="1" vertex="1">
          <mxGeometry x="650.9000000000001" y="140" width="71.3" height="20" as="geometry" />
        </mxCell>
      </root>
    </mxGraphModel>
  </diagram>
</mxfile>
